STARTFONT 2.1
FONT -Trip5-MatrixChunky8X-Medium-R-Normal--8-80-75-75-P-40-ISO10646-1
SIZE 8 75 75
FONTBOUNDINGBOX 8 8 -1 0
COMMENT "Generated by fontforge, http://fontforge.sourceforge.net"
COMMENT "Trip5"
COMMENT "Conventional Chaos"
COMMENT "CC-BY"
STARTPROPERTIES 25
FOUNDRY "Conventional Chaos"
FAMILY_NAME "MatrixChunky8X"
FONT_NAME "MatrixChunky8X"
FACE_NAME "MatrixChunky8X"
COPYRIGHT "https://github.com/trip5/Matrix-Fonts"
FONT_VERSION "001.000"
WEIGHT_NAME "Medium"
SLANT "R"
SETWIDTH_NAME "Normal"
ADD_STYLE_NAME ""
PIXEL_SIZE 8
POINT_SIZE 80
RESOLUTION_X 75
RESOLUTION_Y 75
SPACING "P"
AVERAGE_WIDTH 40
CHARSET_REGISTRY "ISO10646"
CHARSET_ENCODING "1"
CHARSET_COLLECTIONS "ISO8859-2 ISO8859-9 ISO8859-4 ISO10646-1"
FONT_ASCENT 8
FONT_DESCENT 0
UNDERLINE_POSITION 0
UNDERLINE_THICKNESS 1
X_HEIGHT 6
CAP_HEIGHT 8
ENDPROPERTIES
CHARS 535
STARTCHAR uni0000
ENCODING 0
SWIDTH 1000 0
DWIDTH 4 0
BBX 3 5 0 2
BITMAP
A0
00
40
00
A0
ENDCHAR
STARTCHAR space
ENCODING 32
SWIDTH 250 0
DWIDTH 2 0
BBX 1 1 0 0
BITMAP
00
ENDCHAR
STARTCHAR exclam
ENCODING 33
SWIDTH 250 0
DWIDTH 2 0
BBX 1 8 0 0
BITMAP
80
80
80
80
80
80
00
80
ENDCHAR
STARTCHAR quotedbl
ENCODING 34
SWIDTH 1000 0
DWIDTH 4 0
BBX 3 2 0 6
BITMAP
A0
A0
ENDCHAR
STARTCHAR numbersign
ENCODING 35
SWIDTH 750 0
DWIDTH 6 0
BBX 5 8 0 0
BITMAP
50
50
F8
50
50
F8
50
50
ENDCHAR
STARTCHAR dollar
ENCODING 36
SWIDTH 1000 0
DWIDTH 4 0
BBX 3 8 0 0
BITMAP
40
E0
80
E0
20
20
E0
40
ENDCHAR
STARTCHAR percent
ENCODING 37
SWIDTH 1000 0
DWIDTH 4 0
BBX 3 8 0 0
BITMAP
A0
A0
20
40
40
80
A0
A0
ENDCHAR
STARTCHAR ampersand
ENCODING 38
SWIDTH 625 0
DWIDTH 5 0
BBX 4 8 0 0
BITMAP
E0
A0
A0
40
B0
A0
B0
D0
ENDCHAR
STARTCHAR quotesingle
ENCODING 39
SWIDTH 250 0
DWIDTH 2 0
BBX 1 3 0 5
BITMAP
80
80
80
ENDCHAR
STARTCHAR parenleft
ENCODING 40
SWIDTH 1000 0
DWIDTH 3 0
BBX 2 8 0 0
BITMAP
40
40
80
80
80
80
40
40
ENDCHAR
STARTCHAR parenright
ENCODING 41
SWIDTH 1000 0
DWIDTH 3 0
BBX 2 8 0 0
BITMAP
80
80
40
40
40
40
80
80
ENDCHAR
STARTCHAR asterisk
ENCODING 42
SWIDTH 625 0
DWIDTH 5 0
BBX 4 4 0 4
BITMAP
90
60
60
90
ENDCHAR
STARTCHAR plus
ENCODING 43
SWIDTH 1000 0
DWIDTH 4 0
BBX 3 3 0 3
BITMAP
40
E0
40
ENDCHAR
STARTCHAR comma
ENCODING 44
SWIDTH 1000 0
DWIDTH 2 0
BBX 1 2 0 0
BITMAP
80
80
ENDCHAR
STARTCHAR hyphen
ENCODING 45
SWIDTH 1000 0
DWIDTH 4 0
BBX 3 1 0 4
BITMAP
E0
ENDCHAR
STARTCHAR period
ENCODING 46
SWIDTH 1000 0
DWIDTH 2 0
BBX 1 1 0 0
BITMAP
80
ENDCHAR
STARTCHAR slash
ENCODING 47
SWIDTH 1000 0
DWIDTH 4 0
BBX 3 8 0 0
BITMAP
20
20
40
40
40
80
80
80
ENDCHAR
STARTCHAR zero
ENCODING 48
SWIDTH 1000 0
DWIDTH 4 0
BBX 3 8 0 0
BITMAP
E0
A0
A0
A0
A0
A0
A0
E0
ENDCHAR
STARTCHAR one
ENCODING 49
SWIDTH 500 0
DWIDTH 4 0
BBX 3 8 0 0
BITMAP
40
C0
40
40
40
40
40
E0
ENDCHAR
STARTCHAR two
ENCODING 50
SWIDTH 1000 0
DWIDTH 4 0
BBX 3 8 0 0
BITMAP
E0
20
20
E0
80
80
80
E0
ENDCHAR
STARTCHAR three
ENCODING 51
SWIDTH 1000 0
DWIDTH 4 0
BBX 3 8 0 0
BITMAP
E0
20
20
E0
20
20
20
E0
ENDCHAR
STARTCHAR four
ENCODING 52
SWIDTH 1000 0
DWIDTH 4 0
BBX 3 8 0 0
BITMAP
A0
A0
A0
E0
20
20
20
20
ENDCHAR
STARTCHAR five
ENCODING 53
SWIDTH 1000 0
DWIDTH 4 0
BBX 3 8 0 0
BITMAP
E0
80
80
E0
20
20
20
E0
ENDCHAR
STARTCHAR six
ENCODING 54
SWIDTH 1000 0
DWIDTH 4 0
BBX 3 8 0 0
BITMAP
E0
80
80
E0
A0
A0
A0
E0
ENDCHAR
STARTCHAR seven
ENCODING 55
SWIDTH 1000 0
DWIDTH 4 0
BBX 3 8 0 0
BITMAP
E0
20
20
20
20
20
20
20
ENDCHAR
STARTCHAR eight
ENCODING 56
SWIDTH 1000 0
DWIDTH 4 0
BBX 3 8 0 0
BITMAP
E0
A0
A0
E0
A0
A0
A0
E0
ENDCHAR
STARTCHAR nine
ENCODING 57
SWIDTH 1000 0
DWIDTH 4 0
BBX 3 8 0 0
BITMAP
E0
A0
A0
E0
20
20
20
E0
ENDCHAR
STARTCHAR colon
ENCODING 58
SWIDTH 1000 0
DWIDTH 2 0
BBX 1 3 0 3
BITMAP
80
00
80
ENDCHAR
STARTCHAR semicolon
ENCODING 59
SWIDTH 1000 0
DWIDTH 2 0
BBX 1 4 0 2
BITMAP
80
00
80
80
ENDCHAR
STARTCHAR less
ENCODING 60
SWIDTH 1000 0
DWIDTH 4 0
BBX 3 5 0 2
BITMAP
20
40
80
40
20
ENDCHAR
STARTCHAR equal
ENCODING 61
SWIDTH 1000 0
DWIDTH 4 0
BBX 3 3 0 3
BITMAP
E0
00
E0
ENDCHAR
STARTCHAR greater
ENCODING 62
SWIDTH 1000 0
DWIDTH 4 0
BBX 3 5 0 2
BITMAP
80
40
20
40
80
ENDCHAR
STARTCHAR question
ENCODING 63
SWIDTH 1000 0
DWIDTH 4 0
BBX 3 8 0 0
BITMAP
E0
A0
20
60
40
40
00
40
ENDCHAR
STARTCHAR at
ENCODING 64
SWIDTH 1000 0
DWIDTH 5 0
BBX 4 8 0 0
BITMAP
F0
90
90
B0
B0
80
80
F0
ENDCHAR
STARTCHAR A
ENCODING 65
SWIDTH 1000 0
DWIDTH 4 0
BBX 3 8 0 0
BITMAP
E0
A0
A0
E0
A0
A0
A0
A0
ENDCHAR
STARTCHAR B
ENCODING 66
SWIDTH 1000 0
DWIDTH 4 0
BBX 3 8 0 0
BITMAP
E0
A0
A0
C0
A0
A0
A0
E0
ENDCHAR
STARTCHAR C
ENCODING 67
SWIDTH 1000 0
DWIDTH 4 0
BBX 3 8 0 0
BITMAP
E0
A0
80
80
80
80
A0
E0
ENDCHAR
STARTCHAR D
ENCODING 68
SWIDTH 1000 0
DWIDTH 4 0
BBX 3 8 0 0
BITMAP
C0
A0
A0
A0
A0
A0
A0
E0
ENDCHAR
STARTCHAR E
ENCODING 69
SWIDTH 1000 0
DWIDTH 4 0
BBX 3 8 0 0
BITMAP
E0
80
80
E0
80
80
80
E0
ENDCHAR
STARTCHAR F
ENCODING 70
SWIDTH 1000 0
DWIDTH 4 0
BBX 3 8 0 0
BITMAP
E0
80
80
E0
80
80
80
80
ENDCHAR
STARTCHAR G
ENCODING 71
SWIDTH 1000 0
DWIDTH 5 0
BBX 4 8 0 0
BITMAP
E0
80
80
B0
90
90
90
F0
ENDCHAR
STARTCHAR H
ENCODING 72
SWIDTH 625 0
DWIDTH 5 0
BBX 4 8 0 0
BITMAP
90
90
90
F0
90
90
90
90
ENDCHAR
STARTCHAR I
ENCODING 73
SWIDTH 1000 0
DWIDTH 4 0
BBX 3 8 0 0
BITMAP
E0
40
40
40
40
40
40
E0
ENDCHAR
STARTCHAR J
ENCODING 74
SWIDTH 1000 0
DWIDTH 4 0
BBX 3 8 0 0
BITMAP
20
20
20
20
20
A0
A0
E0
ENDCHAR
STARTCHAR K
ENCODING 75
SWIDTH 1000 0
DWIDTH 4 0
BBX 3 8 0 0
BITMAP
A0
A0
A0
C0
A0
A0
A0
A0
ENDCHAR
STARTCHAR L
ENCODING 76
SWIDTH 1000 0
DWIDTH 4 0
BBX 3 8 0 0
BITMAP
80
80
80
80
80
80
80
E0
ENDCHAR
STARTCHAR M
ENCODING 77
SWIDTH 1000 0
DWIDTH 6 0
BBX 5 8 0 0
BITMAP
88
D8
A8
A8
88
88
88
88
ENDCHAR
STARTCHAR N
ENCODING 78
SWIDTH 1000 0
DWIDTH 5 0
BBX 4 8 0 0
BITMAP
90
90
D0
B0
90
90
90
90
ENDCHAR
STARTCHAR O
ENCODING 79
SWIDTH 1000 0
DWIDTH 5 0
BBX 4 8 0 0
BITMAP
F0
90
90
90
90
90
90
F0
ENDCHAR
STARTCHAR P
ENCODING 80
SWIDTH 1000 0
DWIDTH 4 0
BBX 3 8 0 0
BITMAP
E0
A0
A0
E0
80
80
80
80
ENDCHAR
STARTCHAR Q
ENCODING 81
SWIDTH 1000 0
DWIDTH 5 0
BBX 4 8 0 0
BITMAP
F0
90
90
90
B0
B0
A0
D0
ENDCHAR
STARTCHAR R
ENCODING 82
SWIDTH 500 0
DWIDTH 4 0
BBX 3 8 0 0
BITMAP
E0
A0
A0
C0
A0
A0
A0
A0
ENDCHAR
STARTCHAR S
ENCODING 83
SWIDTH 1000 0
DWIDTH 4 0
BBX 3 8 0 0
BITMAP
E0
A0
80
E0
20
20
A0
E0
ENDCHAR
STARTCHAR T
ENCODING 84
SWIDTH 1000 0
DWIDTH 4 0
BBX 3 8 0 0
BITMAP
E0
40
40
40
40
40
40
40
ENDCHAR
STARTCHAR U
ENCODING 85
SWIDTH 1000 0
DWIDTH 4 0
BBX 3 8 0 0
BITMAP
A0
A0
A0
A0
A0
A0
A0
E0
ENDCHAR
STARTCHAR V
ENCODING 86
SWIDTH 1000 0
DWIDTH 4 0
BBX 3 8 0 0
BITMAP
A0
A0
A0
A0
A0
A0
E0
40
ENDCHAR
STARTCHAR W
ENCODING 87
SWIDTH 1000 0
DWIDTH 6 0
BBX 5 8 0 0
BITMAP
A8
A8
A8
A8
A8
A8
F8
50
ENDCHAR
STARTCHAR X
ENCODING 88
SWIDTH 1000 0
DWIDTH 4 0
BBX 3 8 0 0
BITMAP
A0
A0
A0
40
A0
A0
A0
A0
ENDCHAR
STARTCHAR Y
ENCODING 89
SWIDTH 1000 0
DWIDTH 4 0
BBX 3 8 0 0
BITMAP
A0
A0
A0
E0
40
40
40
40
ENDCHAR
STARTCHAR Z
ENCODING 90
SWIDTH 1000 0
DWIDTH 4 0
BBX 3 8 0 0
BITMAP
E0
20
20
40
80
80
80
E0
ENDCHAR
STARTCHAR bracketleft
ENCODING 91
SWIDTH 1000 0
DWIDTH 4 0
BBX 3 8 0 0
BITMAP
E0
80
80
80
80
80
80
E0
ENDCHAR
STARTCHAR backslash
ENCODING 92
SWIDTH 1000 0
DWIDTH 4 0
BBX 3 8 0 0
BITMAP
80
80
40
40
40
20
20
20
ENDCHAR
STARTCHAR bracketright
ENCODING 93
SWIDTH 1000 0
DWIDTH 4 0
BBX 3 8 0 0
BITMAP
E0
20
20
20
20
20
20
E0
ENDCHAR
STARTCHAR asciicircum
ENCODING 94
SWIDTH 1000 0
DWIDTH 4 0
BBX 3 3 0 5
BITMAP
40
E0
A0
ENDCHAR
STARTCHAR underscore
ENCODING 95
SWIDTH 1000 0
DWIDTH 4 0
BBX 3 1 0 0
BITMAP
E0
ENDCHAR
STARTCHAR grave
ENCODING 96
SWIDTH 1000 0
DWIDTH 3 0
BBX 2 2 0 6
BITMAP
80
40
ENDCHAR
STARTCHAR a
ENCODING 97
SWIDTH 500 0
DWIDTH 4 0
BBX 3 5 0 0
BITMAP
E0
20
E0
A0
E0
ENDCHAR
STARTCHAR b
ENCODING 98
SWIDTH 500 0
DWIDTH 4 0
BBX 3 8 0 0
BITMAP
80
80
80
E0
A0
A0
A0
E0
ENDCHAR
STARTCHAR c
ENCODING 99
SWIDTH 1000 0
DWIDTH 4 0
BBX 3 5 0 0
BITMAP
E0
80
80
80
E0
ENDCHAR
STARTCHAR d
ENCODING 100
SWIDTH 1000 0
DWIDTH 4 0
BBX 3 8 0 0
BITMAP
20
20
20
E0
A0
A0
A0
E0
ENDCHAR
STARTCHAR e
ENCODING 101
SWIDTH 1000 0
DWIDTH 4 0
BBX 3 5 0 0
BITMAP
E0
A0
E0
80
E0
ENDCHAR
STARTCHAR f
ENCODING 102
SWIDTH 1000 0
DWIDTH 4 0
BBX 3 7 0 0
BITMAP
60
40
40
E0
40
40
40
ENDCHAR
STARTCHAR g
ENCODING 103
SWIDTH 1000 0
DWIDTH 4 0
BBX 3 5 0 0
BITMAP
E0
A0
E0
20
60
ENDCHAR
STARTCHAR h
ENCODING 104
SWIDTH 1000 0
DWIDTH 4 0
BBX 3 8 0 0
BITMAP
80
80
80
E0
A0
A0
A0
A0
ENDCHAR
STARTCHAR i
ENCODING 105
SWIDTH 500 0
DWIDTH 4 0
BBX 3 7 0 0
BITMAP
40
00
C0
40
40
40
E0
ENDCHAR
STARTCHAR j
ENCODING 106
SWIDTH 1000 0
DWIDTH 4 0
BBX 3 7 0 0
BITMAP
20
00
20
20
20
A0
E0
ENDCHAR
STARTCHAR k
ENCODING 107
SWIDTH 1000 0
DWIDTH 4 0
BBX 3 8 0 0
BITMAP
80
80
A0
A0
C0
A0
A0
A0
ENDCHAR
STARTCHAR l
ENCODING 108
SWIDTH 1000 0
DWIDTH 4 0
BBX 3 8 0 0
BITMAP
C0
40
40
40
40
40
40
E0
ENDCHAR
STARTCHAR m
ENCODING 109
SWIDTH 1000 0
DWIDTH 6 0
BBX 5 5 0 0
BITMAP
F8
A8
A8
A8
A8
ENDCHAR
STARTCHAR n
ENCODING 110
SWIDTH 1000 0
DWIDTH 4 0
BBX 3 5 0 0
BITMAP
E0
A0
A0
A0
A0
ENDCHAR
STARTCHAR o
ENCODING 111
SWIDTH 1000 0
DWIDTH 4 0
BBX 3 5 0 0
BITMAP
E0
A0
A0
A0
E0
ENDCHAR
STARTCHAR p
ENCODING 112
SWIDTH 1000 0
DWIDTH 4 0
BBX 3 5 0 0
BITMAP
E0
A0
E0
80
80
ENDCHAR
STARTCHAR q
ENCODING 113
SWIDTH 1000 0
DWIDTH 4 0
BBX 3 5 0 0
BITMAP
E0
A0
E0
20
20
ENDCHAR
STARTCHAR r
ENCODING 114
SWIDTH 1000 0
DWIDTH 4 0
BBX 3 5 0 0
BITMAP
E0
80
80
80
80
ENDCHAR
STARTCHAR s
ENCODING 115
SWIDTH 500 0
DWIDTH 4 0
BBX 3 5 0 0
BITMAP
E0
80
E0
20
E0
ENDCHAR
STARTCHAR t
ENCODING 116
SWIDTH 1000 0
DWIDTH 4 0
BBX 3 8 0 0
BITMAP
40
40
40
E0
40
40
40
60
ENDCHAR
STARTCHAR u
ENCODING 117
SWIDTH 1000 0
DWIDTH 4 0
BBX 3 5 0 0
BITMAP
A0
A0
A0
A0
E0
ENDCHAR
STARTCHAR v
ENCODING 118
SWIDTH 1000 0
DWIDTH 4 0
BBX 3 5 0 0
BITMAP
A0
A0
A0
E0
40
ENDCHAR
STARTCHAR w
ENCODING 119
SWIDTH 1000 0
DWIDTH 6 0
BBX 5 5 0 0
BITMAP
A8
A8
A8
F8
50
ENDCHAR
STARTCHAR x
ENCODING 120
SWIDTH 1000 0
DWIDTH 4 0
BBX 3 5 0 0
BITMAP
A0
A0
40
A0
A0
ENDCHAR
STARTCHAR y
ENCODING 121
SWIDTH 1000 0
DWIDTH 4 0
BBX 3 5 0 0
BITMAP
A0
A0
E0
20
60
ENDCHAR
STARTCHAR z
ENCODING 122
SWIDTH 1000 0
DWIDTH 4 0
BBX 3 5 0 0
BITMAP
E0
20
40
80
E0
ENDCHAR
STARTCHAR braceleft
ENCODING 123
SWIDTH 1000 0
DWIDTH 4 0
BBX 3 8 0 0
BITMAP
60
40
40
C0
40
40
40
60
ENDCHAR
STARTCHAR bar
ENCODING 124
SWIDTH 1000 0
DWIDTH 2 0
BBX 1 8 0 0
BITMAP
80
80
80
80
80
80
80
80
ENDCHAR
STARTCHAR braceright
ENCODING 125
SWIDTH 1000 0
DWIDTH 4 0
BBX 3 8 0 0
BITMAP
C0
40
40
60
40
40
40
C0
ENDCHAR
STARTCHAR asciitilde
ENCODING 126
SWIDTH 500 0
DWIDTH 4 0
BBX 3 2 0 3
BITMAP
60
C0
ENDCHAR
STARTCHAR exclamdown
ENCODING 161
SWIDTH 250 0
DWIDTH 2 0
BBX 1 8 0 0
BITMAP
80
80
00
80
80
80
80
80
ENDCHAR
STARTCHAR cent
ENCODING 162
SWIDTH 1000 0
DWIDTH 4 0
BBX 3 7 0 0
BITMAP
40
E0
80
80
80
E0
40
ENDCHAR
STARTCHAR sterling
ENCODING 163
SWIDTH 1000 0
DWIDTH 5 0
BBX 4 8 0 0
BITMAP
70
50
40
E0
40
40
40
F0
ENDCHAR
STARTCHAR currency
ENCODING 164
SWIDTH 1000 0
DWIDTH 5 0
BBX 4 6 0 1
BITMAP
F0
60
90
90
60
F0
ENDCHAR
STARTCHAR yen
ENCODING 165
SWIDTH 1000 0
DWIDTH 4 0
BBX 3 8 0 0
BITMAP
A0
A0
E0
40
E0
40
40
40
ENDCHAR
STARTCHAR brokenbar
ENCODING 166
SWIDTH 1000 0
DWIDTH 2 0
BBX 1 8 0 0
BITMAP
80
80
80
00
80
80
80
80
ENDCHAR
STARTCHAR section
ENCODING 167
SWIDTH 1000 0
DWIDTH 4 0
BBX 3 8 0 0
BITMAP
60
80
E0
A0
A0
E0
20
C0
ENDCHAR
STARTCHAR dieresis
ENCODING 168
SWIDTH 1000 0
DWIDTH 4 0
BBX 3 8 0 0
BITMAP
40
E0
A0
C0
A0
A0
E0
40
ENDCHAR
STARTCHAR copyright
ENCODING 169
SWIDTH 1000 0
DWIDTH 7 0
BBX 6 7 0 1
BITMAP
78
CC
B4
A4
B4
CC
78
ENDCHAR
STARTCHAR ordfeminine
ENCODING 170
SWIDTH 1000 0
DWIDTH 4 0
BBX 3 5 0 3
BITMAP
60
A0
E0
00
E0
ENDCHAR
STARTCHAR guillemotleft
ENCODING 171
SWIDTH 1000 0
DWIDTH 5 0
BBX 4 3 0 3
BITMAP
50
F0
50
ENDCHAR
STARTCHAR logicalnot
ENCODING 172
SWIDTH 1000 0
DWIDTH 6 0
BBX 5 8 0 0
BITMAP
B8
A8
20
20
20
28
28
38
ENDCHAR
STARTCHAR uni00AD
ENCODING 173
SWIDTH 1000 0
DWIDTH 4 0
BBX 3 1 0 4
BITMAP
E0
ENDCHAR
STARTCHAR registered
ENCODING 174
SWIDTH 1000 0
DWIDTH 7 0
BBX 6 7 0 1
BITMAP
78
CC
B4
A4
A4
CC
78
ENDCHAR
STARTCHAR macron
ENCODING 175
SWIDTH 1000 0
DWIDTH 6 0
BBX 5 8 0 0
BITMAP
B8
A0
20
38
20
20
20
20
ENDCHAR
STARTCHAR degree
ENCODING 176
SWIDTH 1000 0
DWIDTH 4 0
BBX 3 3 0 5
BITMAP
E0
A0
E0
ENDCHAR
STARTCHAR plusminus
ENCODING 177
SWIDTH 1000 0
DWIDTH 4 0
BBX 3 5 0 2
BITMAP
40
E0
40
00
E0
ENDCHAR
STARTCHAR uni00B2
ENCODING 178
SWIDTH 1000 0
DWIDTH 3 0
BBX 2 5 0 3
BITMAP
C0
40
C0
80
C0
ENDCHAR
STARTCHAR uni00B3
ENCODING 179
SWIDTH 1000 0
DWIDTH 3 0
BBX 2 5 0 3
BITMAP
C0
40
C0
40
C0
ENDCHAR
STARTCHAR acute
ENCODING 180
SWIDTH 1000 0
DWIDTH 3 0
BBX 2 2 0 6
BITMAP
40
C0
ENDCHAR
STARTCHAR mu
ENCODING 181
SWIDTH 1000 0
DWIDTH 4 0
BBX 3 6 0 0
BITMAP
A0
A0
A0
A0
E0
80
ENDCHAR
STARTCHAR paragraph
ENCODING 182
SWIDTH 625 0
DWIDTH 5 0
BBX 4 8 0 0
BITMAP
F0
D0
F0
30
30
30
30
30
ENDCHAR
STARTCHAR periodcentered
ENCODING 183
SWIDTH 1000 0
DWIDTH 2 0
BBX 1 1 0 4
BITMAP
80
ENDCHAR
STARTCHAR cedilla
ENCODING 184
SWIDTH 1000 0
DWIDTH 4 0
BBX 3 8 0 0
BITMAP
E0
00
00
E0
00
00
00
E0
ENDCHAR
STARTCHAR uni00B9
ENCODING 185
SWIDTH 1000 0
DWIDTH 2 0
BBX 1 5 0 3
BITMAP
80
80
80
80
80
ENDCHAR
STARTCHAR ordmasculine
ENCODING 186
SWIDTH 500 0
DWIDTH 4 0
BBX 3 5 0 3
BITMAP
E0
A0
E0
00
E0
ENDCHAR
STARTCHAR guillemotright
ENCODING 187
SWIDTH 1000 0
DWIDTH 5 0
BBX 4 3 0 3
BITMAP
A0
F0
A0
ENDCHAR
STARTCHAR onequarter
ENCODING 188
SWIDTH 1000 0
DWIDTH 5 0
BBX 4 8 0 0
BITMAP
30
60
40
F0
40
40
60
30
ENDCHAR
STARTCHAR onehalf
ENCODING 189
SWIDTH 1000 0
DWIDTH 8 0
BBX 7 8 0 0
BITMAP
54
54
FE
54
54
54
7C
28
ENDCHAR
STARTCHAR threequarters
ENCODING 190
SWIDTH 1000 0
DWIDTH 6 0
BBX 5 8 0 0
BITMAP
70
50
10
F8
40
40
50
70
ENDCHAR
STARTCHAR questiondown
ENCODING 191
SWIDTH 1000 0
DWIDTH 4 0
BBX 3 8 0 0
BITMAP
40
00
40
40
C0
80
A0
E0
ENDCHAR
STARTCHAR Agrave
ENCODING 192
SWIDTH 1000 0
DWIDTH 4 0
BBX 3 8 0 0
BITMAP
80
40
00
E0
A0
E0
A0
A0
ENDCHAR
STARTCHAR Aacute
ENCODING 193
SWIDTH 1000 0
DWIDTH 4 0
BBX 3 8 0 0
BITMAP
20
40
00
E0
A0
E0
A0
A0
ENDCHAR
STARTCHAR Acircumflex
ENCODING 194
SWIDTH 1000 0
DWIDTH 4 0
BBX 3 8 0 0
BITMAP
40
A0
00
E0
A0
E0
A0
A0
ENDCHAR
STARTCHAR Atilde
ENCODING 195
SWIDTH 1000 0
DWIDTH 4 0
BBX 3 8 0 0
BITMAP
E0
00
E0
A0
E0
A0
A0
A0
ENDCHAR
STARTCHAR Adieresis
ENCODING 196
SWIDTH 1000 0
DWIDTH 4 0
BBX 3 8 0 0
BITMAP
A0
00
E0
A0
E0
A0
A0
A0
ENDCHAR
STARTCHAR Aring
ENCODING 197
SWIDTH 1000 0
DWIDTH 4 0
BBX 3 8 0 0
BITMAP
40
00
E0
A0
E0
A0
A0
A0
ENDCHAR
STARTCHAR AE
ENCODING 198
SWIDTH 1000 0
DWIDTH 6 0
BBX 5 8 0 0
BITMAP
F8
A0
A0
F8
A0
A0
A0
B8
ENDCHAR
STARTCHAR Ccedilla
ENCODING 199
SWIDTH 1000 0
DWIDTH 4 0
BBX 3 8 0 0
BITMAP
E0
80
80
80
80
80
E0
40
ENDCHAR
STARTCHAR Egrave
ENCODING 200
SWIDTH 1000 0
DWIDTH 4 0
BBX 3 8 0 0
BITMAP
80
40
00
E0
80
E0
80
E0
ENDCHAR
STARTCHAR Eacute
ENCODING 201
SWIDTH 1000 0
DWIDTH 4 0
BBX 3 8 0 0
BITMAP
20
40
00
E0
80
E0
80
E0
ENDCHAR
STARTCHAR Ecircumflex
ENCODING 202
SWIDTH 1000 0
DWIDTH 4 0
BBX 3 8 0 0
BITMAP
40
A0
00
E0
80
E0
80
E0
ENDCHAR
STARTCHAR Edieresis
ENCODING 203
SWIDTH 1000 0
DWIDTH 4 0
BBX 3 8 0 0
BITMAP
A0
00
E0
80
E0
80
80
E0
ENDCHAR
STARTCHAR Igrave
ENCODING 204
SWIDTH 1000 0
DWIDTH 4 0
BBX 3 8 0 0
BITMAP
80
40
00
E0
40
40
40
E0
ENDCHAR
STARTCHAR Iacute
ENCODING 205
SWIDTH 1000 0
DWIDTH 4 0
BBX 3 8 0 0
BITMAP
20
40
00
E0
40
40
40
E0
ENDCHAR
STARTCHAR Icircumflex
ENCODING 206
SWIDTH 1000 0
DWIDTH 4 0
BBX 3 8 0 0
BITMAP
40
A0
00
E0
40
40
40
E0
ENDCHAR
STARTCHAR Idieresis
ENCODING 207
SWIDTH 1000 0
DWIDTH 4 0
BBX 3 8 0 0
BITMAP
A0
00
E0
40
40
40
40
E0
ENDCHAR
STARTCHAR Eth
ENCODING 208
SWIDTH 1000 0
DWIDTH 5 0
BBX 4 8 0 0
BITMAP
60
50
50
F0
50
50
50
60
ENDCHAR
STARTCHAR Ntilde
ENCODING 209
SWIDTH 1000 0
DWIDTH 5 0
BBX 4 8 0 0
BITMAP
60
00
90
D0
B0
90
90
90
ENDCHAR
STARTCHAR Ograve
ENCODING 210
SWIDTH 1000 0
DWIDTH 4 0
BBX 3 8 0 0
BITMAP
40
20
00
E0
A0
A0
A0
E0
ENDCHAR
STARTCHAR Oacute
ENCODING 211
SWIDTH 1000 0
DWIDTH 4 0
BBX 3 8 0 0
BITMAP
40
80
00
E0
A0
A0
A0
E0
ENDCHAR
STARTCHAR Ocircumflex
ENCODING 212
SWIDTH 1000 0
DWIDTH 4 0
BBX 3 8 0 0
BITMAP
40
A0
00
E0
A0
A0
A0
E0
ENDCHAR
STARTCHAR Otilde
ENCODING 213
SWIDTH 1000 0
DWIDTH 4 0
BBX 3 8 0 0
BITMAP
E0
00
E0
A0
A0
A0
A0
E0
ENDCHAR
STARTCHAR Odieresis
ENCODING 214
SWIDTH 1000 0
DWIDTH 4 0
BBX 3 8 0 0
BITMAP
A0
00
E0
A0
A0
A0
A0
E0
ENDCHAR
STARTCHAR multiply
ENCODING 215
SWIDTH 1000 0
DWIDTH 4 0
BBX 3 3 0 3
BITMAP
A0
40
A0
ENDCHAR
STARTCHAR Oslash
ENCODING 216
SWIDTH 1000 0
DWIDTH 5 0
BBX 4 8 0 0
BITMAP
F0
90
90
B0
D0
90
90
F0
ENDCHAR
STARTCHAR Ugrave
ENCODING 217
SWIDTH 1000 0
DWIDTH 4 0
BBX 3 8 0 0
BITMAP
80
40
00
A0
A0
A0
A0
E0
ENDCHAR
STARTCHAR Uacute
ENCODING 218
SWIDTH 1000 0
DWIDTH 4 0
BBX 3 8 0 0
BITMAP
20
40
00
A0
A0
A0
A0
E0
ENDCHAR
STARTCHAR Ucircumflex
ENCODING 219
SWIDTH 1000 0
DWIDTH 4 0
BBX 3 8 0 0
BITMAP
40
A0
00
A0
A0
A0
A0
E0
ENDCHAR
STARTCHAR Udieresis
ENCODING 220
SWIDTH 1000 0
DWIDTH 4 0
BBX 3 8 0 0
BITMAP
A0
00
A0
A0
A0
A0
A0
E0
ENDCHAR
STARTCHAR Yacute
ENCODING 221
SWIDTH 1000 0
DWIDTH 4 0
BBX 3 8 0 0
BITMAP
20
40
00
A0
A0
E0
40
40
ENDCHAR
STARTCHAR Thorn
ENCODING 222
SWIDTH 1000 0
DWIDTH 4 0
BBX 3 8 0 0
BITMAP
80
80
E0
A0
A0
E0
80
80
ENDCHAR
STARTCHAR germandbls
ENCODING 223
SWIDTH 1000 0
DWIDTH 4 0
BBX 3 8 0 0
BITMAP
E0
A0
C0
A0
A0
E0
80
80
ENDCHAR
STARTCHAR agrave
ENCODING 224
SWIDTH 1000 0
DWIDTH 4 0
BBX 3 8 0 0
BITMAP
40
20
00
E0
20
E0
A0
E0
ENDCHAR
STARTCHAR aacute
ENCODING 225
SWIDTH 1000 0
DWIDTH 4 0
BBX 3 8 0 0
BITMAP
40
80
00
E0
20
E0
A0
E0
ENDCHAR
STARTCHAR acircumflex
ENCODING 226
SWIDTH 1000 0
DWIDTH 4 0
BBX 3 8 0 0
BITMAP
40
A0
00
E0
20
E0
A0
E0
ENDCHAR
STARTCHAR atilde
ENCODING 227
SWIDTH 1000 0
DWIDTH 4 0
BBX 3 7 0 0
BITMAP
E0
00
E0
20
E0
A0
E0
ENDCHAR
STARTCHAR adieresis
ENCODING 228
SWIDTH 1000 0
DWIDTH 4 0
BBX 3 7 0 0
BITMAP
A0
00
E0
20
E0
A0
E0
ENDCHAR
STARTCHAR aring
ENCODING 229
SWIDTH 1000 0
DWIDTH 4 0
BBX 3 7 0 0
BITMAP
40
00
E0
20
E0
A0
E0
ENDCHAR
STARTCHAR ae
ENCODING 230
SWIDTH 1000 0
DWIDTH 6 0
BBX 5 5 0 0
BITMAP
F8
28
F8
A0
F8
ENDCHAR
STARTCHAR ccedilla
ENCODING 231
SWIDTH 1000 0
DWIDTH 4 0
BBX 3 5 0 0
BITMAP
E0
80
80
E0
40
ENDCHAR
STARTCHAR egrave
ENCODING 232
SWIDTH 1000 0
DWIDTH 4 0
BBX 3 8 0 0
BITMAP
40
20
00
E0
A0
E0
80
E0
ENDCHAR
STARTCHAR eacute
ENCODING 233
SWIDTH 1000 0
DWIDTH 4 0
BBX 3 8 0 0
BITMAP
40
80
00
E0
A0
E0
80
E0
ENDCHAR
STARTCHAR ecircumflex
ENCODING 234
SWIDTH 1000 0
DWIDTH 4 0
BBX 3 8 0 0
BITMAP
40
A0
00
E0
A0
E0
80
E0
ENDCHAR
STARTCHAR edieresis
ENCODING 235
SWIDTH 1000 0
DWIDTH 4 0
BBX 3 7 0 0
BITMAP
A0
00
E0
A0
E0
80
E0
ENDCHAR
STARTCHAR igrave
ENCODING 236
SWIDTH 375 0
DWIDTH 4 0
BBX 3 8 0 0
BITMAP
80
40
00
C0
40
40
40
E0
ENDCHAR
STARTCHAR iacute
ENCODING 237
SWIDTH 1000 0
DWIDTH 4 0
BBX 3 8 0 0
BITMAP
20
40
00
C0
40
40
40
E0
ENDCHAR
STARTCHAR icircumflex
ENCODING 238
SWIDTH 1000 0
DWIDTH 4 0
BBX 3 8 0 0
BITMAP
40
A0
00
C0
40
40
40
E0
ENDCHAR
STARTCHAR idieresis
ENCODING 239
SWIDTH 1000 0
DWIDTH 4 0
BBX 3 7 0 0
BITMAP
A0
00
C0
40
40
40
E0
ENDCHAR
STARTCHAR eth
ENCODING 240
SWIDTH 1000 0
DWIDTH 4 0
BBX 3 8 0 0
BITMAP
A0
40
A0
20
E0
A0
A0
E0
ENDCHAR
STARTCHAR ntilde
ENCODING 241
SWIDTH 1000 0
DWIDTH 4 0
BBX 3 7 0 0
BITMAP
E0
00
E0
A0
A0
A0
A0
ENDCHAR
STARTCHAR ograve
ENCODING 242
SWIDTH 1000 0
DWIDTH 4 0
BBX 3 7 0 0
BITMAP
80
40
00
E0
A0
A0
E0
ENDCHAR
STARTCHAR oacute
ENCODING 243
SWIDTH 1000 0
DWIDTH 4 0
BBX 3 7 0 0
BITMAP
20
40
00
E0
A0
A0
E0
ENDCHAR
STARTCHAR ocircumflex
ENCODING 244
SWIDTH 1000 0
DWIDTH 4 0
BBX 3 7 0 0
BITMAP
40
A0
00
E0
A0
A0
E0
ENDCHAR
STARTCHAR otilde
ENCODING 245
SWIDTH 1000 0
DWIDTH 4 0
BBX 3 6 0 0
BITMAP
E0
00
E0
A0
A0
E0
ENDCHAR
STARTCHAR odieresis
ENCODING 246
SWIDTH 1000 0
DWIDTH 4 0
BBX 3 6 0 0
BITMAP
A0
00
E0
A0
A0
E0
ENDCHAR
STARTCHAR divide
ENCODING 247
SWIDTH 1000 0
DWIDTH 4 0
BBX 3 5 0 2
BITMAP
40
00
E0
00
40
ENDCHAR
STARTCHAR oslash
ENCODING 248
SWIDTH 1000 0
DWIDTH 5 0
BBX 4 5 0 0
BITMAP
F0
B0
D0
90
F0
ENDCHAR
STARTCHAR ugrave
ENCODING 249
SWIDTH 1000 0
DWIDTH 4 0
BBX 3 7 0 0
BITMAP
80
40
00
A0
A0
A0
E0
ENDCHAR
STARTCHAR uacute
ENCODING 250
SWIDTH 1000 0
DWIDTH 4 0
BBX 3 7 0 0
BITMAP
20
40
00
A0
A0
A0
E0
ENDCHAR
STARTCHAR ucircumflex
ENCODING 251
SWIDTH 1000 0
DWIDTH 4 0
BBX 3 7 0 0
BITMAP
40
A0
00
A0
A0
A0
E0
ENDCHAR
STARTCHAR udieresis
ENCODING 252
SWIDTH 1000 0
DWIDTH 4 0
BBX 3 6 0 0
BITMAP
A0
00
A0
A0
A0
E0
ENDCHAR
STARTCHAR yacute
ENCODING 253
SWIDTH 1000 0
DWIDTH 4 0
BBX 3 8 0 0
BITMAP
20
40
00
A0
A0
E0
20
60
ENDCHAR
STARTCHAR thorn
ENCODING 254
SWIDTH 1000 0
DWIDTH 4 0
BBX 3 8 0 0
BITMAP
80
80
80
E0
A0
A0
E0
80
ENDCHAR
STARTCHAR ydieresis
ENCODING 255
SWIDTH 1000 0
DWIDTH 4 0
BBX 3 8 0 0
BITMAP
A0
00
A0
A0
A0
E0
20
60
ENDCHAR
STARTCHAR Amacron
ENCODING 256
SWIDTH 1000 0
DWIDTH 4 0
BBX 3 8 0 0
BITMAP
E0
00
E0
A0
E0
A0
A0
A0
ENDCHAR
STARTCHAR amacron
ENCODING 257
SWIDTH 1000 0
DWIDTH 4 0
BBX 3 7 0 0
BITMAP
E0
00
E0
20
E0
A0
E0
ENDCHAR
STARTCHAR Abreve
ENCODING 258
SWIDTH 1000 0
DWIDTH 4 0
BBX 3 8 0 0
BITMAP
A0
40
00
E0
A0
E0
A0
A0
ENDCHAR
STARTCHAR abreve
ENCODING 259
SWIDTH 1000 0
DWIDTH 4 0
BBX 3 8 0 0
BITMAP
A0
40
00
E0
20
E0
A0
E0
ENDCHAR
STARTCHAR Aogonek
ENCODING 260
SWIDTH 1000 0
DWIDTH 4 0
BBX 4 8 0 0
BITMAP
E0
A0
A0
E0
A0
A0
A0
30
ENDCHAR
STARTCHAR aogonek
ENCODING 261
SWIDTH 1000 0
DWIDTH 4 0
BBX 4 6 0 0
BITMAP
E0
20
E0
A0
E0
30
ENDCHAR
STARTCHAR Cacute
ENCODING 262
SWIDTH 1000 0
DWIDTH 4 0
BBX 3 8 0 0
BITMAP
40
80
00
E0
80
80
80
E0
ENDCHAR
STARTCHAR cacute
ENCODING 263
SWIDTH 1000 0
DWIDTH 4 0
BBX 3 7 0 0
BITMAP
40
80
00
E0
80
80
E0
ENDCHAR
STARTCHAR Ccircumflex
ENCODING 264
SWIDTH 1000 0
DWIDTH 4 0
BBX 3 8 0 0
BITMAP
40
A0
00
E0
80
80
80
E0
ENDCHAR
STARTCHAR ccircumflex
ENCODING 265
SWIDTH 1000 0
DWIDTH 4 0
BBX 3 7 0 0
BITMAP
40
A0
00
E0
80
80
E0
ENDCHAR
STARTCHAR Cdotaccent
ENCODING 266
SWIDTH 1000 0
DWIDTH 4 0
BBX 3 8 0 0
BITMAP
40
00
E0
80
80
80
80
E0
ENDCHAR
STARTCHAR cdotaccent
ENCODING 267
SWIDTH 1000 0
DWIDTH 4 0
BBX 3 7 0 0
BITMAP
40
00
E0
80
80
80
E0
ENDCHAR
STARTCHAR Ccaron
ENCODING 268
SWIDTH 1000 0
DWIDTH 4 0
BBX 3 8 0 0
BITMAP
A0
40
00
E0
80
80
80
E0
ENDCHAR
STARTCHAR ccaron
ENCODING 269
SWIDTH 1000 0
DWIDTH 4 0
BBX 3 7 0 0
BITMAP
A0
40
00
E0
80
80
E0
ENDCHAR
STARTCHAR Dcaron
ENCODING 270
SWIDTH 1000 0
DWIDTH 4 0
BBX 3 8 0 0
BITMAP
A0
40
00
C0
A0
A0
A0
E0
ENDCHAR
STARTCHAR dcaron
ENCODING 271
SWIDTH 1000 0
DWIDTH 5 0
BBX 4 8 0 0
BITMAP
30
30
20
E0
A0
A0
A0
E0
ENDCHAR
STARTCHAR Dcroat
ENCODING 272
SWIDTH 1000 0
DWIDTH 5 0
BBX 4 8 0 0
BITMAP
60
50
50
F0
50
50
50
70
ENDCHAR
STARTCHAR dcroat
ENCODING 273
SWIDTH 1000 0
DWIDTH 5 0
BBX 4 8 0 0
BITMAP
20
70
20
E0
A0
A0
A0
E0
ENDCHAR
STARTCHAR Emacron
ENCODING 274
SWIDTH 1000 0
DWIDTH 4 0
BBX 3 8 0 0
BITMAP
E0
00
E0
80
E0
80
80
E0
ENDCHAR
STARTCHAR emacron
ENCODING 275
SWIDTH 1000 0
DWIDTH 4 0
BBX 3 7 0 0
BITMAP
E0
00
E0
A0
E0
80
E0
ENDCHAR
STARTCHAR Ebreve
ENCODING 276
SWIDTH 1000 0
DWIDTH 4 0
BBX 3 8 0 0
BITMAP
A0
40
00
E0
80
E0
80
E0
ENDCHAR
STARTCHAR ebreve
ENCODING 277
SWIDTH 1000 0
DWIDTH 4 0
BBX 3 8 0 0
BITMAP
A0
40
00
E0
A0
E0
80
E0
ENDCHAR
STARTCHAR Edotaccent
ENCODING 278
SWIDTH 1000 0
DWIDTH 4 0
BBX 3 8 0 0
BITMAP
40
00
E0
80
E0
80
80
E0
ENDCHAR
STARTCHAR edotaccent
ENCODING 279
SWIDTH 1000 0
DWIDTH 4 0
BBX 3 7 0 0
BITMAP
40
00
E0
A0
E0
80
E0
ENDCHAR
STARTCHAR Eogonek
ENCODING 280
SWIDTH 1000 0
DWIDTH 4 0
BBX 4 8 0 0
BITMAP
E0
80
80
E0
80
80
E0
30
ENDCHAR
STARTCHAR eogonek
ENCODING 281
SWIDTH 1000 0
DWIDTH 4 0
BBX 3 6 0 0
BITMAP
E0
A0
E0
80
E0
40
ENDCHAR
STARTCHAR Ecaron
ENCODING 282
SWIDTH 1000 0
DWIDTH 4 0
BBX 3 8 0 0
BITMAP
A0
40
00
E0
80
E0
80
E0
ENDCHAR
STARTCHAR ecaron
ENCODING 283
SWIDTH 1000 0
DWIDTH 4 0
BBX 3 8 0 0
BITMAP
A0
40
00
E0
A0
E0
80
E0
ENDCHAR
STARTCHAR Gcircumflex
ENCODING 284
SWIDTH 1000 0
DWIDTH 5 0
BBX 4 8 0 0
BITMAP
40
A0
00
E0
80
B0
90
F0
ENDCHAR
STARTCHAR gcircumflex
ENCODING 285
SWIDTH 1000 0
DWIDTH 4 0
BBX 3 8 0 0
BITMAP
40
A0
00
E0
A0
E0
20
60
ENDCHAR
STARTCHAR Gbreve
ENCODING 286
SWIDTH 1000 0
DWIDTH 5 0
BBX 4 8 0 0
BITMAP
A0
40
00
E0
80
B0
90
F0
ENDCHAR
STARTCHAR gbreve
ENCODING 287
SWIDTH 1000 0
DWIDTH 4 0
BBX 3 8 0 0
BITMAP
A0
40
00
E0
A0
E0
20
60
ENDCHAR
STARTCHAR Gdotaccent
ENCODING 288
SWIDTH 1000 0
DWIDTH 5 0
BBX 4 8 0 0
BITMAP
40
00
E0
80
80
B0
90
F0
ENDCHAR
STARTCHAR gdotaccent
ENCODING 289
SWIDTH 1000 0
DWIDTH 4 0
BBX 3 7 0 0
BITMAP
40
00
E0
A0
E0
20
60
ENDCHAR
STARTCHAR uni0122
ENCODING 290
SWIDTH 1000 0
DWIDTH 5 0
BBX 4 8 0 0
BITMAP
E0
80
80
B0
90
90
F0
40
ENDCHAR
STARTCHAR uni0123
ENCODING 291
SWIDTH 1000 0
DWIDTH 4 0
BBX 3 8 0 0
BITMAP
40
40
00
E0
A0
E0
20
60
ENDCHAR
STARTCHAR Hcircumflex
ENCODING 292
SWIDTH 1000 0
DWIDTH 4 0
BBX 3 8 0 0
BITMAP
40
A0
00
A0
A0
E0
A0
A0
ENDCHAR
STARTCHAR hcircumflex
ENCODING 293
SWIDTH 1000 0
DWIDTH 4 0
BBX 3 8 0 0
BITMAP
40
A0
00
80
80
E0
A0
A0
ENDCHAR
STARTCHAR Hbar
ENCODING 294
SWIDTH 750 0
DWIDTH 6 0
BBX 5 8 0 0
BITMAP
50
F8
50
70
50
50
50
50
ENDCHAR
STARTCHAR hbar
ENCODING 295
SWIDTH 625 0
DWIDTH 5 0
BBX 4 8 0 0
BITMAP
40
E0
40
40
70
50
50
50
ENDCHAR
STARTCHAR Itilde
ENCODING 296
SWIDTH 1000 0
DWIDTH 4 0
BBX 3 8 0 0
BITMAP
E0
00
E0
40
40
40
40
E0
ENDCHAR
STARTCHAR itilde
ENCODING 297
SWIDTH 500 0
DWIDTH 4 0
BBX 3 7 0 0
BITMAP
E0
00
C0
40
40
40
E0
ENDCHAR
STARTCHAR Imacron
ENCODING 298
SWIDTH 1000 0
DWIDTH 4 0
BBX 3 8 0 0
BITMAP
E0
00
E0
40
40
40
40
E0
ENDCHAR
STARTCHAR imacron
ENCODING 299
SWIDTH 500 0
DWIDTH 4 0
BBX 3 7 0 0
BITMAP
E0
00
C0
40
40
40
E0
ENDCHAR
STARTCHAR Ibreve
ENCODING 300
SWIDTH 1000 0
DWIDTH 4 0
BBX 3 8 0 0
BITMAP
A0
40
00
E0
40
40
40
E0
ENDCHAR
STARTCHAR ibreve
ENCODING 301
SWIDTH 500 0
DWIDTH 4 0
BBX 3 8 0 0
BITMAP
A0
40
00
C0
40
40
40
E0
ENDCHAR
STARTCHAR Iogonek
ENCODING 302
SWIDTH 1000 0
DWIDTH 4 0
BBX 3 8 0 0
BITMAP
E0
40
40
40
40
40
E0
40
ENDCHAR
STARTCHAR iogonek
ENCODING 303
SWIDTH 1000 0
DWIDTH 4 0
BBX 3 7 0 0
BITMAP
40
00
C0
40
40
E0
20
ENDCHAR
STARTCHAR Idotaccent
ENCODING 304
SWIDTH 1000 0
DWIDTH 4 0
BBX 3 8 0 0
BITMAP
40
00
E0
40
40
40
40
E0
ENDCHAR
STARTCHAR dotlessi
ENCODING 305
SWIDTH 1000 0
DWIDTH 4 0
BBX 3 5 0 0
BITMAP
C0
40
40
40
E0
ENDCHAR
STARTCHAR IJ
ENCODING 306
SWIDTH 875 0
DWIDTH 7 0
BBX 6 8 0 0
BITMAP
E4
44
44
44
44
54
54
FC
ENDCHAR
STARTCHAR ij
ENCODING 307
SWIDTH 625 0
DWIDTH 5 0
BBX 5 7 -1 0
BITMAP
48
00
C8
48
48
68
F8
ENDCHAR
STARTCHAR Jcircumflex
ENCODING 308
SWIDTH 625 0
DWIDTH 5 0
BBX 4 8 0 0
BITMAP
20
50
00
20
20
A0
A0
E0
ENDCHAR
STARTCHAR jcircumflex
ENCODING 309
SWIDTH 625 0
DWIDTH 5 0
BBX 4 7 0 0
BITMAP
20
50
00
20
20
A0
E0
ENDCHAR
STARTCHAR uni0136
ENCODING 310
SWIDTH 1000 0
DWIDTH 4 0
BBX 3 8 0 0
BITMAP
A0
A0
A0
C0
A0
A0
A0
40
ENDCHAR
STARTCHAR uni0137
ENCODING 311
SWIDTH 1000 0
DWIDTH 4 0
BBX 3 8 0 0
BITMAP
80
80
A0
A0
C0
A0
A0
40
ENDCHAR
STARTCHAR kgreenlandic
ENCODING 312
SWIDTH 1000 0
DWIDTH 4 0
BBX 3 6 0 0
BITMAP
A0
A0
C0
A0
A0
A0
ENDCHAR
STARTCHAR Lacute
ENCODING 313
SWIDTH 1000 0
DWIDTH 4 0
BBX 3 8 0 0
BITMAP
40
80
00
80
80
80
80
E0
ENDCHAR
STARTCHAR lacute
ENCODING 314
SWIDTH 1000 0
DWIDTH 4 0
BBX 3 8 0 0
BITMAP
40
80
00
C0
40
40
40
E0
ENDCHAR
STARTCHAR uni013B
ENCODING 315
SWIDTH 1000 0
DWIDTH 4 0
BBX 3 8 0 0
BITMAP
80
80
80
80
80
80
E0
40
ENDCHAR
STARTCHAR uni013C
ENCODING 316
SWIDTH 1000 0
DWIDTH 4 0
BBX 3 8 0 0
BITMAP
C0
40
40
40
40
40
E0
40
ENDCHAR
STARTCHAR Lcaron
ENCODING 317
SWIDTH 1000 0
DWIDTH 4 0
BBX 3 8 0 0
BITMAP
A0
A0
80
80
80
80
80
E0
ENDCHAR
STARTCHAR lcaron
ENCODING 318
SWIDTH 625 0
DWIDTH 5 0
BBX 4 8 0 0
BITMAP
D0
50
40
40
40
40
40
E0
ENDCHAR
STARTCHAR Ldot
ENCODING 319
SWIDTH 1000 0
DWIDTH 4 0
BBX 3 8 0 0
BITMAP
80
80
A0
80
80
80
80
E0
ENDCHAR
STARTCHAR ldot
ENCODING 320
SWIDTH 1000 0
DWIDTH 4 0
BBX 3 8 0 0
BITMAP
C0
40
60
40
40
40
40
E0
ENDCHAR
STARTCHAR Lslash
ENCODING 321
SWIDTH 1000 0
DWIDTH 5 0
BBX 4 8 0 0
BITMAP
40
40
60
C0
40
40
40
70
ENDCHAR
STARTCHAR lslash
ENCODING 322
SWIDTH 1000 0
DWIDTH 4 0
BBX 3 8 0 0
BITMAP
C0
40
60
C0
40
40
40
E0
ENDCHAR
STARTCHAR Nacute
ENCODING 323
SWIDTH 1000 0
DWIDTH 5 0
BBX 4 8 0 0
BITMAP
20
40
00
90
D0
B0
90
90
ENDCHAR
STARTCHAR nacute
ENCODING 324
SWIDTH 1000 0
DWIDTH 4 0
BBX 3 8 0 0
BITMAP
20
40
00
E0
A0
A0
A0
A0
ENDCHAR
STARTCHAR uni0145
ENCODING 325
SWIDTH 1000 0
DWIDTH 5 0
BBX 4 8 0 0
BITMAP
90
90
D0
B0
90
90
90
40
ENDCHAR
STARTCHAR uni0146
ENCODING 326
SWIDTH 1000 0
DWIDTH 4 0
BBX 3 5 0 0
BITMAP
E0
A0
A0
A0
40
ENDCHAR
STARTCHAR Ncaron
ENCODING 327
SWIDTH 1000 0
DWIDTH 5 0
BBX 4 8 0 0
BITMAP
A0
40
00
90
D0
B0
90
90
ENDCHAR
STARTCHAR ncaron
ENCODING 328
SWIDTH 1000 0
DWIDTH 4 0
BBX 3 8 0 0
BITMAP
A0
40
00
E0
A0
A0
A0
A0
ENDCHAR
STARTCHAR napostrophe
ENCODING 329
SWIDTH 1000 0
DWIDTH 5 0
BBX 4 8 0 0
BITMAP
80
80
00
70
50
50
50
50
ENDCHAR
STARTCHAR Eng
ENCODING 330
SWIDTH 1000 0
DWIDTH 5 0
BBX 4 8 0 0
BITMAP
F0
90
90
90
90
90
90
20
ENDCHAR
STARTCHAR eng
ENCODING 331
SWIDTH 1000 0
DWIDTH 4 0
BBX 3 6 0 0
BITMAP
E0
A0
A0
A0
A0
20
ENDCHAR
STARTCHAR Omacron
ENCODING 332
SWIDTH 1000 0
DWIDTH 4 0
BBX 3 8 0 0
BITMAP
E0
00
E0
A0
A0
A0
A0
E0
ENDCHAR
STARTCHAR omacron
ENCODING 333
SWIDTH 1000 0
DWIDTH 4 0
BBX 3 7 0 0
BITMAP
E0
00
E0
A0
A0
A0
E0
ENDCHAR
STARTCHAR Obreve
ENCODING 334
SWIDTH 1000 0
DWIDTH 4 0
BBX 3 8 0 0
BITMAP
A0
40
00
E0
A0
A0
A0
E0
ENDCHAR
STARTCHAR obreve
ENCODING 335
SWIDTH 1000 0
DWIDTH 4 0
BBX 3 7 0 0
BITMAP
A0
40
00
E0
A0
A0
E0
ENDCHAR
STARTCHAR Ohungarumlaut
ENCODING 336
SWIDTH 1000 0
DWIDTH 4 0
BBX 3 8 0 0
BITMAP
A0
00
E0
A0
A0
A0
A0
E0
ENDCHAR
STARTCHAR ohungarumlaut
ENCODING 337
SWIDTH 1000 0
DWIDTH 4 0
BBX 3 7 0 0
BITMAP
A0
00
E0
A0
A0
A0
E0
ENDCHAR
STARTCHAR OE
ENCODING 338
SWIDTH 1000 0
DWIDTH 6 0
BBX 5 8 0 0
BITMAP
F8
A0
A0
B8
A0
A0
A0
F8
ENDCHAR
STARTCHAR oe
ENCODING 339
SWIDTH 1000 0
DWIDTH 6 0
BBX 5 5 0 0
BITMAP
F8
A8
B8
A0
F8
ENDCHAR
STARTCHAR Racute
ENCODING 340
SWIDTH 500 0
DWIDTH 4 0
BBX 3 8 0 0
BITMAP
20
40
00
E0
A0
C0
A0
A0
ENDCHAR
STARTCHAR racute
ENCODING 341
SWIDTH 1000 0
DWIDTH 4 0
BBX 3 8 0 0
BITMAP
20
40
00
E0
80
80
80
80
ENDCHAR
STARTCHAR uni0156
ENCODING 342
SWIDTH 500 0
DWIDTH 4 0
BBX 3 8 0 0
BITMAP
E0
A0
A0
C0
A0
A0
A0
40
ENDCHAR
STARTCHAR uni0157
ENCODING 343
SWIDTH 1000 0
DWIDTH 4 0
BBX 3 6 0 0
BITMAP
E0
80
80
80
80
40
ENDCHAR
STARTCHAR Rcaron
ENCODING 344
SWIDTH 500 0
DWIDTH 4 0
BBX 3 8 0 0
BITMAP
A0
40
00
E0
A0
C0
A0
A0
ENDCHAR
STARTCHAR rcaron
ENCODING 345
SWIDTH 1000 0
DWIDTH 4 0
BBX 3 8 0 0
BITMAP
A0
40
00
E0
80
80
80
80
ENDCHAR
STARTCHAR Sacute
ENCODING 346
SWIDTH 500 0
DWIDTH 4 0
BBX 3 8 0 0
BITMAP
40
80
00
E0
80
E0
20
E0
ENDCHAR
STARTCHAR sacute
ENCODING 347
SWIDTH 500 0
DWIDTH 4 0
BBX 3 8 0 0
BITMAP
20
40
00
E0
80
E0
20
E0
ENDCHAR
STARTCHAR Scircumflex
ENCODING 348
SWIDTH 500 0
DWIDTH 4 0
BBX 3 8 0 0
BITMAP
40
A0
00
E0
80
E0
20
E0
ENDCHAR
STARTCHAR scircumflex
ENCODING 349
SWIDTH 500 0
DWIDTH 4 0
BBX 3 8 0 0
BITMAP
40
A0
00
E0
80
E0
20
E0
ENDCHAR
STARTCHAR Scedilla
ENCODING 350
SWIDTH 1000 0
DWIDTH 4 0
BBX 3 8 0 0
BITMAP
E0
80
80
E0
20
20
E0
40
ENDCHAR
STARTCHAR scedilla
ENCODING 351
SWIDTH 500 0
DWIDTH 4 0
BBX 3 6 0 0
BITMAP
E0
80
E0
20
E0
40
ENDCHAR
STARTCHAR Scaron
ENCODING 352
SWIDTH 1000 0
DWIDTH 4 0
BBX 3 8 0 0
BITMAP
A0
40
00
E0
80
E0
20
E0
ENDCHAR
STARTCHAR scaron
ENCODING 353
SWIDTH 1000 0
DWIDTH 4 0
BBX 3 8 0 0
BITMAP
A0
40
00
E0
80
E0
20
E0
ENDCHAR
STARTCHAR uni0162
ENCODING 354
SWIDTH 1000 0
DWIDTH 4 0
BBX 3 8 0 0
BITMAP
E0
40
40
40
40
40
60
20
ENDCHAR
STARTCHAR uni0163
ENCODING 355
SWIDTH 1000 0
DWIDTH 4 0
BBX 3 8 0 0
BITMAP
40
40
E0
40
40
40
60
20
ENDCHAR
STARTCHAR Tcaron
ENCODING 356
SWIDTH 1000 0
DWIDTH 4 0
BBX 3 8 0 0
BITMAP
E0
00
E0
40
40
40
40
40
ENDCHAR
STARTCHAR tcaron
ENCODING 357
SWIDTH 625 0
DWIDTH 5 0
BBX 4 8 0 0
BITMAP
50
50
40
E0
40
40
40
60
ENDCHAR
STARTCHAR Tbar
ENCODING 358
SWIDTH 1000 0
DWIDTH 4 0
BBX 3 8 0 0
BITMAP
E0
40
40
E0
40
40
40
40
ENDCHAR
STARTCHAR tbar
ENCODING 359
SWIDTH 1000 0
DWIDTH 4 0
BBX 3 8 0 0
BITMAP
40
40
E0
40
E0
40
40
60
ENDCHAR
STARTCHAR Utilde
ENCODING 360
SWIDTH 1000 0
DWIDTH 4 0
BBX 3 8 0 0
BITMAP
E0
00
A0
A0
A0
A0
A0
E0
ENDCHAR
STARTCHAR utilde
ENCODING 361
SWIDTH 1000 0
DWIDTH 4 0
BBX 3 7 0 0
BITMAP
E0
00
A0
A0
A0
A0
E0
ENDCHAR
STARTCHAR Umacron
ENCODING 362
SWIDTH 1000 0
DWIDTH 4 0
BBX 3 8 0 0
BITMAP
E0
00
A0
A0
A0
A0
A0
E0
ENDCHAR
STARTCHAR umacron
ENCODING 363
SWIDTH 1000 0
DWIDTH 4 0
BBX 3 7 0 0
BITMAP
E0
00
A0
A0
A0
A0
E0
ENDCHAR
STARTCHAR Ubreve
ENCODING 364
SWIDTH 1000 0
DWIDTH 4 0
BBX 3 8 0 0
BITMAP
A0
40
00
A0
A0
A0
A0
E0
ENDCHAR
STARTCHAR ubreve
ENCODING 365
SWIDTH 1000 0
DWIDTH 4 0
BBX 3 7 0 0
BITMAP
A0
40
00
A0
A0
A0
E0
ENDCHAR
STARTCHAR Uring
ENCODING 366
SWIDTH 1000 0
DWIDTH 4 0
BBX 3 8 0 0
BITMAP
40
00
A0
A0
A0
A0
A0
E0
ENDCHAR
STARTCHAR uring
ENCODING 367
SWIDTH 1000 0
DWIDTH 4 0
BBX 3 7 0 0
BITMAP
40
00
A0
A0
A0
A0
E0
ENDCHAR
STARTCHAR Uhungarumlaut
ENCODING 368
SWIDTH 1000 0
DWIDTH 4 0
BBX 3 8 0 0
BITMAP
A0
00
A0
A0
A0
A0
A0
E0
ENDCHAR
STARTCHAR uhungarumlaut
ENCODING 369
SWIDTH 1000 0
DWIDTH 4 0
BBX 3 7 0 0
BITMAP
A0
00
A0
A0
A0
A0
E0
ENDCHAR
STARTCHAR Uogonek
ENCODING 370
SWIDTH 1000 0
DWIDTH 4 0
BBX 3 8 0 0
BITMAP
A0
A0
A0
A0
A0
A0
E0
20
ENDCHAR
STARTCHAR uogonek
ENCODING 371
SWIDTH 1000 0
DWIDTH 4 0
BBX 3 5 0 0
BITMAP
A0
A0
A0
E0
20
ENDCHAR
STARTCHAR Wcircumflex
ENCODING 372
SWIDTH 1000 0
DWIDTH 6 0
BBX 5 8 0 0
BITMAP
20
50
00
A8
A8
A8
F8
50
ENDCHAR
STARTCHAR wcircumflex
ENCODING 373
SWIDTH 1000 0
DWIDTH 6 0
BBX 5 7 0 0
BITMAP
20
50
00
A8
A8
F8
50
ENDCHAR
STARTCHAR Ycircumflex
ENCODING 374
SWIDTH 1000 0
DWIDTH 4 0
BBX 3 8 0 0
BITMAP
40
A0
00
A0
A0
E0
40
40
ENDCHAR
STARTCHAR ycircumflex
ENCODING 375
SWIDTH 1000 0
DWIDTH 4 0
BBX 3 8 0 0
BITMAP
40
A0
00
A0
A0
E0
20
60
ENDCHAR
STARTCHAR Ydieresis
ENCODING 376
SWIDTH 1000 0
DWIDTH 4 0
BBX 3 8 0 0
BITMAP
A0
00
A0
A0
E0
40
40
40
ENDCHAR
STARTCHAR Zacute
ENCODING 377
SWIDTH 1000 0
DWIDTH 4 0
BBX 3 8 0 0
BITMAP
20
40
00
E0
20
40
80
E0
ENDCHAR
STARTCHAR zacute
ENCODING 378
SWIDTH 1000 0
DWIDTH 4 0
BBX 3 8 0 0
BITMAP
20
40
00
E0
20
40
80
E0
ENDCHAR
STARTCHAR Zdotaccent
ENCODING 379
SWIDTH 1000 0
DWIDTH 4 0
BBX 3 8 0 0
BITMAP
40
00
E0
20
40
80
80
E0
ENDCHAR
STARTCHAR zdotaccent
ENCODING 380
SWIDTH 1000 0
DWIDTH 4 0
BBX 3 7 0 0
BITMAP
40
00
E0
20
40
80
E0
ENDCHAR
STARTCHAR Zcaron
ENCODING 381
SWIDTH 1000 0
DWIDTH 4 0
BBX 3 8 0 0
BITMAP
A0
40
00
E0
20
40
80
E0
ENDCHAR
STARTCHAR zcaron
ENCODING 382
SWIDTH 1000 0
DWIDTH 4 0
BBX 3 8 0 0
BITMAP
A0
40
00
E0
20
40
80
E0
ENDCHAR
STARTCHAR longs
ENCODING 383
SWIDTH 1000 0
DWIDTH 4 0
BBX 3 8 0 0
BITMAP
E0
80
80
80
80
80
80
80
ENDCHAR
STARTCHAR Alphatonos
ENCODING 902
SWIDTH 750 0
DWIDTH 6 0
BBX 5 8 0 0
BITMAP
B8
A8
28
38
28
28
28
28
ENDCHAR
STARTCHAR Epsilontonos
ENCODING 904
SWIDTH 750 0
DWIDTH 6 0
BBX 5 8 0 0
BITMAP
B8
A0
20
38
20
20
20
38
ENDCHAR
STARTCHAR Etatonos
ENCODING 905
SWIDTH 875 0
DWIDTH 7 0
BBX 6 8 0 0
BITMAP
A4
A4
24
3C
24
24
24
24
ENDCHAR
STARTCHAR Iotatonos
ENCODING 906
SWIDTH 750 0
DWIDTH 6 0
BBX 5 8 0 0
BITMAP
B8
90
10
10
10
10
10
38
ENDCHAR
STARTCHAR Omicrontonos
ENCODING 908
SWIDTH 875 0
DWIDTH 7 0
BBX 6 8 0 0
BITMAP
BC
A4
24
24
24
24
24
3C
ENDCHAR
STARTCHAR Upsilontonos
ENCODING 910
SWIDTH 750 0
DWIDTH 6 0
BBX 5 8 0 0
BITMAP
A8
A8
28
38
10
10
10
10
ENDCHAR
STARTCHAR Omegatonos
ENCODING 911
SWIDTH 1000 0
DWIDTH 8 0
BBX 7 8 0 0
BITMAP
BE
A2
22
22
22
36
14
36
ENDCHAR
STARTCHAR Alpha
ENCODING 913
SWIDTH 1000 0
DWIDTH 4 0
BBX 3 8 0 0
BITMAP
E0
A0
A0
E0
A0
A0
A0
A0
ENDCHAR
STARTCHAR Beta
ENCODING 914
SWIDTH 1000 0
DWIDTH 4 0
BBX 3 8 0 0
BITMAP
E0
A0
A0
C0
A0
A0
A0
E0
ENDCHAR
STARTCHAR Gamma
ENCODING 915
SWIDTH 1000 0
DWIDTH 4 0
BBX 3 8 0 0
BITMAP
E0
80
80
80
80
80
80
80
ENDCHAR
STARTCHAR uni0394
ENCODING 916
SWIDTH 1000 0
DWIDTH 6 0
BBX 5 8 0 0
BITMAP
20
20
50
50
88
88
88
F8
ENDCHAR
STARTCHAR Epsilon
ENCODING 917
SWIDTH 1000 0
DWIDTH 4 0
BBX 3 8 0 0
BITMAP
E0
80
80
E0
80
80
80
E0
ENDCHAR
STARTCHAR Zeta
ENCODING 918
SWIDTH 1000 0
DWIDTH 4 0
BBX 3 8 0 0
BITMAP
E0
20
20
40
80
80
80
E0
ENDCHAR
STARTCHAR Eta
ENCODING 919
SWIDTH 1000 0
DWIDTH 5 0
BBX 4 8 0 0
BITMAP
90
90
90
F0
90
90
90
90
ENDCHAR
STARTCHAR Theta
ENCODING 920
SWIDTH 625 0
DWIDTH 5 0
BBX 4 8 0 0
BITMAP
F0
90
90
F0
90
90
90
F0
ENDCHAR
STARTCHAR Iota
ENCODING 921
SWIDTH 1000 0
DWIDTH 4 0
BBX 3 8 0 0
BITMAP
E0
40
40
40
40
40
40
E0
ENDCHAR
STARTCHAR Kappa
ENCODING 922
SWIDTH 1000 0
DWIDTH 4 0
BBX 3 8 0 0
BITMAP
A0
A0
A0
C0
A0
A0
A0
A0
ENDCHAR
STARTCHAR Lambda
ENCODING 923
SWIDTH 1000 0
DWIDTH 6 0
BBX 5 8 0 0
BITMAP
20
20
50
50
50
88
88
88
ENDCHAR
STARTCHAR Mu
ENCODING 924
SWIDTH 1000 0
DWIDTH 6 0
BBX 5 8 0 0
BITMAP
88
D8
A8
A8
88
88
88
88
ENDCHAR
STARTCHAR Nu
ENCODING 925
SWIDTH 1000 0
DWIDTH 5 0
BBX 4 8 0 0
BITMAP
90
90
D0
B0
90
90
90
90
ENDCHAR
STARTCHAR Xi
ENCODING 926
SWIDTH 1000 0
DWIDTH 4 0
BBX 3 8 0 0
BITMAP
E0
00
00
E0
00
00
00
E0
ENDCHAR
STARTCHAR Omicron
ENCODING 927
SWIDTH 1000 0
DWIDTH 5 0
BBX 4 8 0 0
BITMAP
F0
90
90
90
90
90
90
F0
ENDCHAR
STARTCHAR Pi
ENCODING 928
SWIDTH 1000 0
DWIDTH 5 0
BBX 4 8 0 0
BITMAP
F0
90
90
90
90
90
90
90
ENDCHAR
STARTCHAR Rho
ENCODING 929
SWIDTH 1000 0
DWIDTH 4 0
BBX 3 8 0 0
BITMAP
E0
A0
A0
E0
80
80
80
80
ENDCHAR
STARTCHAR Sigma
ENCODING 931
SWIDTH 1000 0
DWIDTH 4 0
BBX 3 8 0 0
BITMAP
E0
80
40
20
40
80
80
E0
ENDCHAR
STARTCHAR Tau
ENCODING 932
SWIDTH 1000 0
DWIDTH 4 0
BBX 3 8 0 0
BITMAP
E0
40
40
40
40
40
40
40
ENDCHAR
STARTCHAR Upsilon
ENCODING 933
SWIDTH 1000 0
DWIDTH 4 0
BBX 3 8 0 0
BITMAP
A0
A0
A0
E0
40
40
40
40
ENDCHAR
STARTCHAR Phi
ENCODING 934
SWIDTH 1000 0
DWIDTH 6 0
BBX 5 8 0 0
BITMAP
20
F8
A8
A8
A8
A8
F8
20
ENDCHAR
STARTCHAR Chi
ENCODING 935
SWIDTH 1000 0
DWIDTH 4 0
BBX 3 8 0 0
BITMAP
A0
A0
A0
40
A0
A0
A0
A0
ENDCHAR
STARTCHAR Psi
ENCODING 936
SWIDTH 750 0
DWIDTH 6 0
BBX 5 8 0 0
BITMAP
A8
A8
A8
F8
20
20
20
20
ENDCHAR
STARTCHAR uni03A9
ENCODING 937
SWIDTH 750 0
DWIDTH 6 0
BBX 5 8 0 0
BITMAP
F8
88
88
88
88
D8
50
D8
ENDCHAR
STARTCHAR Iotadieresis
ENCODING 938
SWIDTH 1000 0
DWIDTH 4 0
BBX 3 8 0 0
BITMAP
A0
00
E0
40
40
40
40
E0
ENDCHAR
STARTCHAR Upsilondieresis
ENCODING 939
SWIDTH 1000 0
DWIDTH 4 0
BBX 3 8 0 0
BITMAP
A0
00
A0
A0
E0
40
40
40
ENDCHAR
STARTCHAR alphatonos
ENCODING 940
SWIDTH 1000 0
DWIDTH 5 0
BBX 4 8 0 0
BITMAP
20
40
00
D0
A0
A0
A0
D0
ENDCHAR
STARTCHAR epsilontonos
ENCODING 941
SWIDTH 1000 0
DWIDTH 4 0
BBX 3 8 0 0
BITMAP
20
40
00
E0
80
40
80
E0
ENDCHAR
STARTCHAR etatonos
ENCODING 942
SWIDTH 1000 0
DWIDTH 4 0
BBX 3 8 0 0
BITMAP
20
40
00
E0
A0
A0
A0
20
ENDCHAR
STARTCHAR iotatonos
ENCODING 943
SWIDTH 500 0
DWIDTH 4 0
BBX 3 8 0 0
BITMAP
20
40
00
C0
40
40
40
60
ENDCHAR
STARTCHAR alpha
ENCODING 945
SWIDTH 625 0
DWIDTH 5 0
BBX 4 5 0 0
BITMAP
D0
A0
A0
A0
D0
ENDCHAR
STARTCHAR beta
ENCODING 946
SWIDTH 1000 0
DWIDTH 4 0
BBX 3 8 0 0
BITMAP
60
A0
A0
C0
A0
A0
E0
80
ENDCHAR
STARTCHAR gamma
ENCODING 947
SWIDTH 625 0
DWIDTH 5 0
BBX 4 5 0 0
BITMAP
D0
50
70
20
20
ENDCHAR
STARTCHAR delta
ENCODING 948
SWIDTH 1000 0
DWIDTH 4 0
BBX 3 8 0 0
BITMAP
E0
80
40
E0
A0
A0
A0
E0
ENDCHAR
STARTCHAR epsilon
ENCODING 949
SWIDTH 1000 0
DWIDTH 4 0
BBX 3 5 0 0
BITMAP
E0
80
40
80
E0
ENDCHAR
STARTCHAR zeta
ENCODING 950
SWIDTH 1000 0
DWIDTH 4 0
BBX 3 8 0 0
BITMAP
E0
20
C0
80
80
80
E0
20
ENDCHAR
STARTCHAR eta
ENCODING 951
SWIDTH 1000 0
DWIDTH 4 0
BBX 3 5 0 0
BITMAP
E0
A0
A0
A0
20
ENDCHAR
STARTCHAR theta
ENCODING 952
SWIDTH 500 0
DWIDTH 4 0
BBX 3 8 0 0
BITMAP
E0
A0
A0
E0
A0
A0
A0
E0
ENDCHAR
STARTCHAR iota
ENCODING 953
SWIDTH 500 0
DWIDTH 4 0
BBX 3 5 0 0
BITMAP
C0
40
40
40
60
ENDCHAR
STARTCHAR kappa
ENCODING 954
SWIDTH 1000 0
DWIDTH 4 0
BBX 3 5 0 0
BITMAP
A0
A0
C0
A0
A0
ENDCHAR
STARTCHAR lambda
ENCODING 955
SWIDTH 750 0
DWIDTH 6 0
BBX 5 8 0 0
BITMAP
60
20
20
50
50
88
88
88
ENDCHAR
STARTCHAR uni03BC
ENCODING 956
SWIDTH 1000 0
DWIDTH 4 0
BBX 3 5 0 0
BITMAP
A0
A0
A0
E0
80
ENDCHAR
STARTCHAR nu
ENCODING 957
SWIDTH 1000 0
DWIDTH 4 0
BBX 3 5 0 0
BITMAP
A0
A0
A0
E0
40
ENDCHAR
STARTCHAR xi
ENCODING 958
SWIDTH 1000 0
DWIDTH 4 0
BBX 3 8 0 0
BITMAP
80
E0
80
60
80
80
E0
20
ENDCHAR
STARTCHAR omicron
ENCODING 959
SWIDTH 1000 0
DWIDTH 4 0
BBX 3 5 0 0
BITMAP
E0
A0
A0
A0
E0
ENDCHAR
STARTCHAR pi
ENCODING 960
SWIDTH 750 0
DWIDTH 6 0
BBX 5 5 0 0
BITMAP
F8
50
50
50
58
ENDCHAR
STARTCHAR rho
ENCODING 961
SWIDTH 1000 0
DWIDTH 4 0
BBX 3 5 0 0
BITMAP
E0
A0
A0
E0
80
ENDCHAR
STARTCHAR sigma1
ENCODING 962
SWIDTH 1000 0
DWIDTH 4 0
BBX 3 5 0 0
BITMAP
E0
80
80
E0
20
ENDCHAR
STARTCHAR sigma
ENCODING 963
SWIDTH 625 0
DWIDTH 5 0
BBX 4 5 0 0
BITMAP
F0
A0
A0
A0
E0
ENDCHAR
STARTCHAR tau
ENCODING 964
SWIDTH 500 0
DWIDTH 4 0
BBX 3 5 0 0
BITMAP
E0
40
40
40
60
ENDCHAR
STARTCHAR upsilon
ENCODING 965
SWIDTH 1000 0
DWIDTH 4 0
BBX 3 5 0 0
BITMAP
A0
A0
A0
A0
E0
ENDCHAR
STARTCHAR phi
ENCODING 966
SWIDTH 1000 0
DWIDTH 6 0
BBX 5 5 0 0
BITMAP
B8
A8
A8
F8
20
ENDCHAR
STARTCHAR chi
ENCODING 967
SWIDTH 1000 0
DWIDTH 4 0
BBX 3 5 0 0
BITMAP
A0
A0
40
A0
A0
ENDCHAR
STARTCHAR psi
ENCODING 968
SWIDTH 1000 0
DWIDTH 6 0
BBX 5 5 0 0
BITMAP
A8
A8
A8
F8
20
ENDCHAR
STARTCHAR omega
ENCODING 969
SWIDTH 1000 0
DWIDTH 6 0
BBX 5 5 0 0
BITMAP
88
A8
A8
F8
50
ENDCHAR
STARTCHAR iotadieresis
ENCODING 970
SWIDTH 500 0
DWIDTH 4 0
BBX 3 7 0 0
BITMAP
A0
00
C0
40
40
40
60
ENDCHAR
STARTCHAR upsilondieresis
ENCODING 971
SWIDTH 1000 0
DWIDTH 4 0
BBX 3 7 0 0
BITMAP
A0
00
A0
A0
A0
A0
E0
ENDCHAR
STARTCHAR omicrontonos
ENCODING 972
SWIDTH 1000 0
DWIDTH 4 0
BBX 3 8 0 0
BITMAP
20
40
00
E0
A0
A0
A0
E0
ENDCHAR
STARTCHAR upsilontonos
ENCODING 973
SWIDTH 1000 0
DWIDTH 4 0
BBX 3 8 0 0
BITMAP
20
40
00
A0
A0
A0
A0
E0
ENDCHAR
STARTCHAR omegatonos
ENCODING 974
SWIDTH 1000 0
DWIDTH 6 0
BBX 5 8 0 0
BITMAP
10
20
00
88
A8
A8
F8
50
ENDCHAR
STARTCHAR uni0401
ENCODING 1025
SWIDTH 1000 0
DWIDTH 4 0
BBX 3 8 0 0
BITMAP
A0
00
E0
80
E0
80
80
E0
ENDCHAR
STARTCHAR uni0404
ENCODING 1028
SWIDTH 1000 0
DWIDTH 5 0
BBX 4 8 0 0
BITMAP
70
80
80
E0
80
80
80
70
ENDCHAR
STARTCHAR uni0406
ENCODING 1030
SWIDTH 1000 0
DWIDTH 4 0
BBX 3 8 0 0
BITMAP
E0
40
40
40
40
40
40
E0
ENDCHAR
STARTCHAR uni0407
ENCODING 1031
SWIDTH 1000 0
DWIDTH 4 0
BBX 3 8 0 0
BITMAP
A0
00
E0
40
40
40
40
E0
ENDCHAR
STARTCHAR uni040E
ENCODING 1038
SWIDTH 1000 0
DWIDTH 4 0
BBX 3 8 0 0
BITMAP
40
00
A0
A0
E0
20
20
60
ENDCHAR
STARTCHAR uni0410
ENCODING 1040
SWIDTH 1000 0
DWIDTH 4 0
BBX 3 8 0 0
BITMAP
E0
A0
A0
E0
A0
A0
A0
A0
ENDCHAR
STARTCHAR uni0411
ENCODING 1041
SWIDTH 1000 0
DWIDTH 4 0
BBX 3 8 0 0
BITMAP
E0
80
80
E0
A0
A0
A0
E0
ENDCHAR
STARTCHAR uni0412
ENCODING 1042
SWIDTH 1000 0
DWIDTH 4 0
BBX 3 8 0 0
BITMAP
E0
A0
A0
C0
A0
A0
A0
E0
ENDCHAR
STARTCHAR uni0413
ENCODING 1043
SWIDTH 1000 0
DWIDTH 4 0
BBX 3 8 0 0
BITMAP
E0
80
80
80
80
80
80
80
ENDCHAR
STARTCHAR uni0414
ENCODING 1044
SWIDTH 750 0
DWIDTH 6 0
BBX 5 8 0 0
BITMAP
30
50
50
50
50
50
F8
88
ENDCHAR
STARTCHAR uni0415
ENCODING 1045
SWIDTH 1000 0
DWIDTH 4 0
BBX 3 8 0 0
BITMAP
E0
80
80
E0
80
80
80
E0
ENDCHAR
STARTCHAR uni0416
ENCODING 1046
SWIDTH 1000 0
DWIDTH 6 0
BBX 5 8 0 0
BITMAP
A8
A8
A8
F8
A8
A8
A8
A8
ENDCHAR
STARTCHAR uni0417
ENCODING 1047
SWIDTH 1000 0
DWIDTH 4 0
BBX 3 8 0 0
BITMAP
E0
A0
20
40
20
20
A0
E0
ENDCHAR
STARTCHAR uni0418
ENCODING 1048
SWIDTH 1000 0
DWIDTH 6 0
BBX 5 8 0 0
BITMAP
88
88
98
A8
C8
88
88
88
ENDCHAR
STARTCHAR uni0419
ENCODING 1049
SWIDTH 1000 0
DWIDTH 6 0
BBX 5 8 0 0
BITMAP
A8
88
98
A8
C8
88
88
88
ENDCHAR
STARTCHAR uni041A
ENCODING 1050
SWIDTH 1000 0
DWIDTH 4 0
BBX 3 8 0 0
BITMAP
A0
A0
A0
C0
A0
A0
A0
A0
ENDCHAR
STARTCHAR uni041B
ENCODING 1051
SWIDTH 1000 0
DWIDTH 5 0
BBX 4 8 0 0
BITMAP
30
50
50
50
50
50
50
D0
ENDCHAR
STARTCHAR uni041C
ENCODING 1052
SWIDTH 1000 0
DWIDTH 6 0
BBX 5 8 0 0
BITMAP
88
D8
A8
A8
88
88
88
88
ENDCHAR
STARTCHAR uni041D
ENCODING 1053
SWIDTH 1000 0
DWIDTH 5 0
BBX 4 8 0 0
BITMAP
90
90
90
F0
90
90
90
90
ENDCHAR
STARTCHAR uni041E
ENCODING 1054
SWIDTH 1000 0
DWIDTH 5 0
BBX 4 8 0 0
BITMAP
F0
90
90
90
90
90
90
F0
ENDCHAR
STARTCHAR uni041F
ENCODING 1055
SWIDTH 1000 0
DWIDTH 5 0
BBX 4 8 0 0
BITMAP
F0
90
90
90
90
90
90
90
ENDCHAR
STARTCHAR uni0420
ENCODING 1056
SWIDTH 1000 0
DWIDTH 4 0
BBX 3 8 0 0
BITMAP
E0
A0
A0
E0
80
80
80
80
ENDCHAR
STARTCHAR uni0421
ENCODING 1057
SWIDTH 1000 0
DWIDTH 4 0
BBX 3 8 0 0
BITMAP
E0
A0
80
80
80
80
A0
E0
ENDCHAR
STARTCHAR uni0422
ENCODING 1058
SWIDTH 1000 0
DWIDTH 4 0
BBX 3 8 0 0
BITMAP
E0
40
40
40
40
40
40
40
ENDCHAR
STARTCHAR uni0423
ENCODING 1059
SWIDTH 1000 0
DWIDTH 5 0
BBX 4 8 0 0
BITMAP
90
90
90
F0
10
10
10
70
ENDCHAR
STARTCHAR uni0424
ENCODING 1060
SWIDTH 1000 0
DWIDTH 6 0
BBX 5 8 0 0
BITMAP
20
F8
A8
A8
A8
A8
F8
20
ENDCHAR
STARTCHAR uni0425
ENCODING 1061
SWIDTH 1000 0
DWIDTH 4 0
BBX 3 8 0 0
BITMAP
A0
A0
A0
40
A0
A0
A0
A0
ENDCHAR
STARTCHAR uni0426
ENCODING 1062
SWIDTH 1000 0
DWIDTH 5 0
BBX 4 8 0 0
BITMAP
A0
A0
A0
A0
A0
A0
A0
F0
ENDCHAR
STARTCHAR uni0427
ENCODING 1063
SWIDTH 1000 0
DWIDTH 4 0
BBX 3 8 0 0
BITMAP
A0
A0
A0
E0
20
20
20
20
ENDCHAR
STARTCHAR uni0428
ENCODING 1064
SWIDTH 1000 0
DWIDTH 6 0
BBX 5 8 0 0
BITMAP
A8
A8
A8
A8
A8
A8
A8
F8
ENDCHAR
STARTCHAR uni0429
ENCODING 1065
SWIDTH 1000 0
DWIDTH 7 0
BBX 6 8 0 0
BITMAP
A8
A8
A8
A8
A8
A8
A8
FC
ENDCHAR
STARTCHAR uni042A
ENCODING 1066
SWIDTH 1000 0
DWIDTH 5 0
BBX 4 8 0 0
BITMAP
C0
40
40
70
50
50
50
70
ENDCHAR
STARTCHAR uni042B
ENCODING 1067
SWIDTH 1000 0
DWIDTH 6 0
BBX 5 8 0 0
BITMAP
88
88
88
E8
A8
A8
A8
E8
ENDCHAR
STARTCHAR uni042C
ENCODING 1068
SWIDTH 1000 0
DWIDTH 4 0
BBX 3 8 0 0
BITMAP
80
80
80
E0
A0
A0
A0
E0
ENDCHAR
STARTCHAR uni042D
ENCODING 1069
SWIDTH 1000 0
DWIDTH 5 0
BBX 4 8 0 0
BITMAP
E0
10
10
70
10
10
10
E0
ENDCHAR
STARTCHAR uni042E
ENCODING 1070
SWIDTH 1000 0
DWIDTH 6 0
BBX 5 8 0 0
BITMAP
B8
A8
A8
E8
A8
A8
A8
B8
ENDCHAR
STARTCHAR uni042F
ENCODING 1071
SWIDTH 1000 0
DWIDTH 4 0
BBX 3 8 0 0
BITMAP
E0
A0
A0
60
A0
A0
A0
A0
ENDCHAR
STARTCHAR uni0430
ENCODING 1072
SWIDTH 1000 0
DWIDTH 4 0
BBX 3 5 0 0
BITMAP
E0
20
E0
A0
E0
ENDCHAR
STARTCHAR uni0431
ENCODING 1073
SWIDTH 1000 0
DWIDTH 4 0
BBX 3 7 0 0
BITMAP
60
80
E0
A0
A0
A0
E0
ENDCHAR
STARTCHAR uni0432
ENCODING 1074
SWIDTH 1000 0
DWIDTH 4 0
BBX 3 5 0 0
BITMAP
E0
A0
C0
A0
E0
ENDCHAR
STARTCHAR uni0433
ENCODING 1075
SWIDTH 1000 0
DWIDTH 4 0
BBX 3 5 0 0
BITMAP
E0
80
80
80
80
ENDCHAR
STARTCHAR uni0434
ENCODING 1076
SWIDTH 750 0
DWIDTH 6 0
BBX 5 5 0 0
BITMAP
30
50
50
F8
88
ENDCHAR
STARTCHAR uni0435
ENCODING 1077
SWIDTH 1000 0
DWIDTH 4 0
BBX 3 5 0 0
BITMAP
E0
A0
E0
80
E0
ENDCHAR
STARTCHAR uni0436
ENCODING 1078
SWIDTH 1000 0
DWIDTH 6 0
BBX 5 5 0 0
BITMAP
A8
A8
F8
A8
A8
ENDCHAR
STARTCHAR uni0437
ENCODING 1079
SWIDTH 1000 0
DWIDTH 4 0
BBX 3 5 0 0
BITMAP
E0
20
40
20
E0
ENDCHAR
STARTCHAR uni0438
ENCODING 1080
SWIDTH 1000 0
DWIDTH 5 0
BBX 4 5 0 0
BITMAP
90
B0
D0
90
90
ENDCHAR
STARTCHAR uni0439
ENCODING 1081
SWIDTH 1000 0
DWIDTH 5 0
BBX 4 7 0 0
BITMAP
60
00
90
B0
D0
90
90
ENDCHAR
STARTCHAR uni043A
ENCODING 1082
SWIDTH 1000 0
DWIDTH 4 0
BBX 3 5 0 0
BITMAP
A0
A0
C0
A0
A0
ENDCHAR
STARTCHAR uni043B
ENCODING 1083
SWIDTH 1000 0
DWIDTH 5 0
BBX 4 5 0 0
BITMAP
30
50
50
50
D0
ENDCHAR
STARTCHAR uni043C
ENCODING 1084
SWIDTH 1000 0
DWIDTH 6 0
BBX 5 5 0 0
BITMAP
88
D8
A8
88
88
ENDCHAR
STARTCHAR uni043D
ENCODING 1085
SWIDTH 1000 0
DWIDTH 4 0
BBX 3 5 0 0
BITMAP
A0
A0
E0
A0
A0
ENDCHAR
STARTCHAR uni043E
ENCODING 1086
SWIDTH 1000 0
DWIDTH 4 0
BBX 3 5 0 0
BITMAP
E0
A0
A0
A0
E0
ENDCHAR
STARTCHAR uni043F
ENCODING 1087
SWIDTH 1000 0
DWIDTH 4 0
BBX 3 5 0 0
BITMAP
E0
A0
A0
A0
A0
ENDCHAR
STARTCHAR uni0440
ENCODING 1088
SWIDTH 1000 0
DWIDTH 4 0
BBX 3 5 0 0
BITMAP
E0
A0
E0
80
80
ENDCHAR
STARTCHAR uni0441
ENCODING 1089
SWIDTH 1000 0
DWIDTH 4 0
BBX 3 5 0 0
BITMAP
E0
80
80
80
E0
ENDCHAR
STARTCHAR uni0442
ENCODING 1090
SWIDTH 1000 0
DWIDTH 4 0
BBX 3 5 0 0
BITMAP
E0
40
40
40
40
ENDCHAR
STARTCHAR uni0443
ENCODING 1091
SWIDTH 1000 0
DWIDTH 4 0
BBX 3 5 0 0
BITMAP
A0
A0
E0
20
60
ENDCHAR
STARTCHAR uni0444
ENCODING 1092
SWIDTH 1000 0
DWIDTH 6 0
BBX 5 8 0 0
BITMAP
20
20
20
F8
A8
A8
F8
20
ENDCHAR
STARTCHAR uni0445
ENCODING 1093
SWIDTH 1000 0
DWIDTH 4 0
BBX 3 5 0 0
BITMAP
A0
A0
40
A0
A0
ENDCHAR
STARTCHAR uni0446
ENCODING 1094
SWIDTH 1000 0
DWIDTH 5 0
BBX 4 5 0 0
BITMAP
A0
A0
A0
A0
F0
ENDCHAR
STARTCHAR uni0447
ENCODING 1095
SWIDTH 1000 0
DWIDTH 4 0
BBX 3 5 0 0
BITMAP
A0
A0
E0
20
20
ENDCHAR
STARTCHAR uni0448
ENCODING 1096
SWIDTH 1000 0
DWIDTH 6 0
BBX 5 5 0 0
BITMAP
A8
A8
A8
A8
F8
ENDCHAR
STARTCHAR uni0449
ENCODING 1097
SWIDTH 1000 0
DWIDTH 7 0
BBX 6 5 0 0
BITMAP
A8
A8
A8
A8
FC
ENDCHAR
STARTCHAR uni044A
ENCODING 1098
SWIDTH 1000 0
DWIDTH 5 0
BBX 4 5 0 0
BITMAP
C0
40
70
50
70
ENDCHAR
STARTCHAR uni044B
ENCODING 1099
SWIDTH 1000 0
DWIDTH 6 0
BBX 5 5 0 0
BITMAP
88
88
E8
A8
E8
ENDCHAR
STARTCHAR uni044C
ENCODING 1100
SWIDTH 1000 0
DWIDTH 4 0
BBX 3 5 0 0
BITMAP
80
80
E0
A0
E0
ENDCHAR
STARTCHAR uni044D
ENCODING 1101
SWIDTH 1000 0
DWIDTH 4 0
BBX 3 5 0 0
BITMAP
C0
20
E0
20
C0
ENDCHAR
STARTCHAR uni044E
ENCODING 1102
SWIDTH 1000 0
DWIDTH 6 0
BBX 5 5 0 0
BITMAP
B8
A8
E8
A8
B8
ENDCHAR
STARTCHAR uni044F
ENCODING 1103
SWIDTH 1000 0
DWIDTH 4 0
BBX 3 5 0 0
BITMAP
E0
A0
60
A0
A0
ENDCHAR
STARTCHAR uni0451
ENCODING 1105
SWIDTH 1000 0
DWIDTH 4 0
BBX 3 7 0 0
BITMAP
A0
00
E0
A0
E0
80
E0
ENDCHAR
STARTCHAR uni0454
ENCODING 1108
SWIDTH 1000 0
DWIDTH 4 0
BBX 3 5 0 0
BITMAP
60
80
E0
80
60
ENDCHAR
STARTCHAR uni0456
ENCODING 1110
SWIDTH 1000 0
DWIDTH 4 0
BBX 3 7 0 0
BITMAP
40
00
C0
40
40
40
E0
ENDCHAR
STARTCHAR uni0457
ENCODING 1111
SWIDTH 1000 0
DWIDTH 4 0
BBX 3 7 0 0
BITMAP
A0
00
C0
40
40
40
E0
ENDCHAR
STARTCHAR uni045E
ENCODING 1118
SWIDTH 1000 0
DWIDTH 4 0
BBX 3 7 0 0
BITMAP
40
00
A0
A0
E0
20
60
ENDCHAR
STARTCHAR uni0490
ENCODING 1168
SWIDTH 1000 0
DWIDTH 5 0
BBX 4 8 0 0
BITMAP
10
E0
80
80
80
80
80
80
ENDCHAR
STARTCHAR uni0491
ENCODING 1169
SWIDTH 1000 0
DWIDTH 4 0
BBX 3 6 0 0
BITMAP
20
C0
80
80
80
80
ENDCHAR
STARTCHAR uni2002
ENCODING 8194
SWIDTH 375 0
DWIDTH 3 0
BBX 1 1 0 0
BITMAP
00
ENDCHAR
STARTCHAR uni2003
ENCODING 8195
SWIDTH 500 0
DWIDTH 4 0
BBX 1 1 0 0
BITMAP
00
ENDCHAR
STARTCHAR uni2009
ENCODING 8201
SWIDTH 1000 0
DWIDTH 1 0
BBX 1 1 6 0
BITMAP
00
ENDCHAR
STARTCHAR uni2010
ENCODING 8208
SWIDTH 1000 0
DWIDTH 1 0
BBX 1 1 0 4
BITMAP
80
ENDCHAR
STARTCHAR endash
ENCODING 8211
SWIDTH 1000 0
DWIDTH 3 0
BBX 2 1 0 4
BITMAP
C0
ENDCHAR
STARTCHAR emdash
ENCODING 8212
SWIDTH 1000 0
DWIDTH 5 0
BBX 4 1 0 4
BITMAP
F0
ENDCHAR
STARTCHAR uni2015
ENCODING 8213
SWIDTH 1000 0
DWIDTH 4 0
BBX 4 1 0 4
BITMAP
F0
ENDCHAR
STARTCHAR bullet
ENCODING 8226
SWIDTH 1000 0
DWIDTH 2 0
BBX 1 1 0 4
BITMAP
80
ENDCHAR
STARTCHAR colonmonetary
ENCODING 8353
SWIDTH 625 0
DWIDTH 5 0
BBX 4 8 0 0
BITMAP
10
F0
A0
A0
A0
A0
F0
40
ENDCHAR
STARTCHAR uni20A2
ENCODING 8354
SWIDTH 625 0
DWIDTH 5 0
BBX 4 8 0 0
BITMAP
F0
80
80
B0
A0
A0
A0
F0
ENDCHAR
STARTCHAR uni20A6
ENCODING 8358
SWIDTH 875 0
DWIDTH 7 0
BBX 6 8 0 0
BITMAP
48
48
EC
58
CC
48
48
48
ENDCHAR
STARTCHAR uni20A9
ENCODING 8361
SWIDTH 1000 0
DWIDTH 8 0
BBX 7 8 0 0
BITMAP
54
54
FE
54
54
54
7C
28
ENDCHAR
STARTCHAR uni20AA
ENCODING 8362
SWIDTH 875 0
DWIDTH 7 0
BBX 6 6 0 0
BITMAP
F4
94
B4
B4
A4
BC
ENDCHAR
STARTCHAR dong
ENCODING 8363
SWIDTH 625 0
DWIDTH 5 0
BBX 4 8 0 0
BITMAP
20
70
20
E0
A0
E0
00
E0
ENDCHAR
STARTCHAR Euro
ENCODING 8364
SWIDTH 625 0
DWIDTH 5 0
BBX 4 8 0 0
BITMAP
30
60
40
F0
40
40
60
30
ENDCHAR
STARTCHAR uni20AD
ENCODING 8365
SWIDTH 625 0
DWIDTH 5 0
BBX 4 8 0 0
BITMAP
50
50
60
F0
60
50
50
50
ENDCHAR
STARTCHAR uni20AE
ENCODING 8366
SWIDTH 1000 0
DWIDTH 4 0
BBX 3 8 0 0
BITMAP
E0
40
60
40
C0
40
40
40
ENDCHAR
STARTCHAR uni20B1
ENCODING 8369
SWIDTH 750 0
DWIDTH 6 0
BBX 5 8 0 0
BITMAP
70
D8
50
70
40
40
40
40
ENDCHAR
STARTCHAR uni20B2
ENCODING 8370
SWIDTH 1000 0
DWIDTH 5 0
BBX 4 8 0 0
BITMAP
40
E0
80
B0
90
90
F0
40
ENDCHAR
STARTCHAR uni20B4
ENCODING 8372
SWIDTH 1000 0
DWIDTH 6 0
BBX 5 8 0 0
BITMAP
70
50
10
F8
40
50
50
70
ENDCHAR
STARTCHAR uni20B5
ENCODING 8373
SWIDTH 1000 0
DWIDTH 4 0
BBX 3 7 0 0
BITMAP
40
E0
80
80
80
E0
40
ENDCHAR
STARTCHAR uni20B8
ENCODING 8376
SWIDTH 1000 0
DWIDTH 4 0
BBX 3 8 0 0
BITMAP
E0
00
E0
40
40
40
40
40
ENDCHAR
STARTCHAR uni20B9
ENCODING 8377
SWIDTH 625 0
DWIDTH 5 0
BBX 4 8 0 0
BITMAP
F0
20
F0
80
40
20
10
10
ENDCHAR
STARTCHAR uni20BA
ENCODING 8378
SWIDTH 625 0
DWIDTH 5 0
BBX 4 8 0 0
BITMAP
E0
40
E0
40
40
50
50
70
ENDCHAR
STARTCHAR uni20BC
ENCODING 8380
SWIDTH 1000 0
DWIDTH 6 0
BBX 5 7 0 0
BITMAP
20
20
F8
A8
A8
A8
A8
ENDCHAR
STARTCHAR uni20BD
ENCODING 8381
SWIDTH 625 0
DWIDTH 5 0
BBX 4 8 0 0
BITMAP
70
50
70
40
E0
40
40
40
ENDCHAR
STARTCHAR uni20BE
ENCODING 8382
SWIDTH 750 0
DWIDTH 6 0
BBX 5 8 0 0
BITMAP
20
F8
A8
A8
A0
80
40
F8
ENDCHAR
STARTCHAR uni20BF
ENCODING 8383
SWIDTH 1000 0
DWIDTH 4 0
BBX 3 8 0 0
BITMAP
40
E0
A0
C0
A0
A0
E0
40
ENDCHAR
STARTCHAR uni20C0
ENCODING 8384
SWIDTH 500 0
DWIDTH 4 0
BBX 3 6 0 0
BITMAP
E0
80
80
E0
00
E0
ENDCHAR
STARTCHAR uni2103
ENCODING 8451
SWIDTH 750 0
DWIDTH 6 0
BBX 5 8 0 0
BITMAP
B8
A8
20
20
20
20
28
38
ENDCHAR
STARTCHAR uni2109
ENCODING 8457
SWIDTH 1000 0
DWIDTH 6 0
BBX 5 8 0 0
BITMAP
B8
A0
20
38
20
20
20
20
ENDCHAR
STARTCHAR uni2460
ENCODING 9312
SWIDTH 125 0
DWIDTH 1 0
BBX 1 1 4 0
BITMAP
00
ENDCHAR
STARTCHAR uni2461
ENCODING 9313
SWIDTH 250 0
DWIDTH 2 0
BBX 1 1 1 0
BITMAP
00
ENDCHAR
STARTCHAR uni2462
ENCODING 9314
SWIDTH 375 0
DWIDTH 3 0
BBX 1 1 3 0
BITMAP
00
ENDCHAR
STARTCHAR uni2463
ENCODING 9315
SWIDTH 500 0
DWIDTH 4 0
BBX 1 1 4 0
BITMAP
00
ENDCHAR
STARTCHAR uni2464
ENCODING 9316
SWIDTH 625 0
DWIDTH 5 0
BBX 1 1 4 0
BITMAP
00
ENDCHAR
STARTCHAR uni2465
ENCODING 9317
SWIDTH 750 0
DWIDTH 6 0
BBX 1 1 1 0
BITMAP
00
ENDCHAR
STARTCHAR uni2466
ENCODING 9318
SWIDTH 875 0
DWIDTH 7 0
BBX 1 1 3 0
BITMAP
00
ENDCHAR
STARTCHAR uni2467
ENCODING 9319
SWIDTH 1000 0
DWIDTH 8 0
BBX 1 1 4 0
BITMAP
00
ENDCHAR
STARTCHAR uni2468
ENCODING 9320
SWIDTH 1125 0
DWIDTH 9 0
BBX 1 1 4 0
BITMAP
00
ENDCHAR
STARTCHAR uni2469
ENCODING 9321
SWIDTH 1250 0
DWIDTH 10 0
BBX 1 1 4 0
BITMAP
00
ENDCHAR
STARTCHAR uni24EA
ENCODING 9450
SWIDTH 0 0
DWIDTH 0 0
BBX 1 1 3 0
BITMAP
00
ENDCHAR
STARTCHAR H22073
ENCODING 9633
SWIDTH 1000 0
DWIDTH 4 0
BBX 3 6 0 1
BITMAP
E0
A0
A0
A0
A0
E0
ENDCHAR
STARTCHAR uni4E00
ENCODING 19968
SWIDTH 1000 0
DWIDTH 8 0
BBX 7 2 0 3
BITMAP
04
FE
ENDCHAR
STARTCHAR uni4E03
ENCODING 19971
SWIDTH 1000 0
DWIDTH 8 0
BBX 7 8 0 0
BITMAP
20
20
2E
F0
20
20
22
1E
ENDCHAR
STARTCHAR uni4E09
ENCODING 19977
SWIDTH 1000 0
DWIDTH 8 0
BBX 7 8 0 0
BITMAP
7C
00
00
38
00
00
04
FE
ENDCHAR
STARTCHAR uni4E0A
ENCODING 19978
SWIDTH 625 0
DWIDTH 5 0
BBX 4 8 0 0
BITMAP
40
40
70
40
40
40
40
F0
ENDCHAR
STARTCHAR uni4E0B
ENCODING 19979
SWIDTH 625 0
DWIDTH 5 0
BBX 4 8 0 0
BITMAP
F0
40
60
50
40
40
40
40
ENDCHAR
STARTCHAR uni4E5D
ENCODING 20061
SWIDTH 1000 0
DWIDTH 8 0
BBX 7 8 0 0
BITMAP
20
F8
28
28
48
48
4A
8E
ENDCHAR
STARTCHAR uni4E8C
ENCODING 20108
SWIDTH 1000 0
DWIDTH 8 0
BBX 7 6 0 1
BITMAP
7C
00
00
00
04
FE
ENDCHAR
STARTCHAR uni4E94
ENCODING 20116
SWIDTH 1000 0
DWIDTH 8 0
BBX 7 8 0 0
BITMAP
7C
10
10
7C
24
24
24
FE
ENDCHAR
STARTCHAR uni516B
ENCODING 20843
SWIDTH 1000 0
DWIDTH 8 0
BBX 7 8 0 0
BITMAP
28
28
28
28
44
44
44
82
ENDCHAR
STARTCHAR uni516D
ENCODING 20845
SWIDTH 1000 0
DWIDTH 8 0
BBX 7 8 0 0
BITMAP
10
FE
00
28
28
44
44
82
ENDCHAR
STARTCHAR uni5341
ENCODING 21313
SWIDTH 1000 0
DWIDTH 8 0
BBX 7 8 0 0
BITMAP
10
10
FE
10
10
10
10
10
ENDCHAR
STARTCHAR uni5348
ENCODING 21320
SWIDTH 625 0
DWIDTH 5 0
BBX 5 8 0 0
BITMAP
40
70
A0
20
F8
20
20
20
ENDCHAR
STARTCHAR uni56DB
ENCODING 22235
SWIDTH 1000 0
DWIDTH 8 0
BBX 7 8 0 0
BITMAP
FE
AA
AA
AE
C2
82
FE
82
ENDCHAR
STARTCHAR uni5929
ENCODING 22825
SWIDTH 1000 0
DWIDTH 8 0
BBX 7 8 0 0
BITMAP
7C
10
10
FE
10
10
28
C6
ENDCHAR
STARTCHAR uni661F
ENCODING 26143
SWIDTH 1000 0
DWIDTH 8 0
BBX 7 8 0 0
BITMAP
FC
84
FC
5E
90
7C
10
FE
ENDCHAR
STARTCHAR uni6708
ENCODING 26376
SWIDTH 1000 0
DWIDTH 8 0
BBX 7 8 0 0
BITMAP
3E
22
3E
22
3E
22
42
86
ENDCHAR
STARTCHAR uni671F
ENCODING 26399
SWIDTH 1000 0
DWIDTH 8 0
BBX 7 8 0 0
BITMAP
5E
FA
5E
7A
5E
EA
12
A6
ENDCHAR
STARTCHAR uniAE08
ENCODING 44552
SWIDTH 750 0
DWIDTH 6 0
BBX 5 8 0 0
BITMAP
F8
08
00
F8
00
F8
88
F8
ENDCHAR
STARTCHAR uniBAA9
ENCODING 47785
SWIDTH 1000 0
DWIDTH 6 0
BBX 5 8 0 0
BITMAP
F8
88
F8
20
F8
00
F8
08
ENDCHAR
STARTCHAR uniC218
ENCODING 49688
SWIDTH 1000 0
DWIDTH 6 0
BBX 5 8 0 0
BITMAP
20
20
50
88
00
F8
20
20
ENDCHAR
STARTCHAR uniC624
ENCODING 50724
SWIDTH 750 0
DWIDTH 6 0
BBX 5 7 0 1
BITMAP
70
88
88
70
20
20
F8
ENDCHAR
STARTCHAR uniC694
ENCODING 50836
SWIDTH 1000 0
DWIDTH 6 0
BBX 5 7 0 1
BITMAP
70
88
88
70
50
50
F8
ENDCHAR
STARTCHAR uniC6D4
ENCODING 50900
SWIDTH 1000 0
DWIDTH 6 0
BBX 5 8 0 0
BITMAP
48
A8
48
E8
58
38
C0
F8
ENDCHAR
STARTCHAR uniC77C
ENCODING 51068
SWIDTH 1000 0
DWIDTH 6 0
BBX 5 8 0 0
BITMAP
48
A8
48
00
F8
38
C0
F8
ENDCHAR
STARTCHAR uniC804
ENCODING 51204
SWIDTH 875 0
DWIDTH 7 0
BBX 6 8 0 0
BITMAP
F4
24
4C
A4
94
44
40
7C
ENDCHAR
STARTCHAR uniD1A0
ENCODING 53664
SWIDTH 1000 0
DWIDTH 6 0
BBX 5 7 0 1
BITMAP
F8
80
F0
80
F8
20
F8
ENDCHAR
STARTCHAR uniD654
ENCODING 54868
SWIDTH 1000 0
DWIDTH 8 0
BBX 7 8 0 0
BITMAP
24
FC
54
56
24
24
FC
04
ENDCHAR
STARTCHAR uniD6C4
ENCODING 54980
SWIDTH 1000 0
DWIDTH 6 0
BBX 5 8 0 0
BITMAP
20
F8
50
20
00
F8
20
20
ENDCHAR
STARTCHAR uniFFE5
ENCODING 65509
SWIDTH 1000 0
DWIDTH 4 0
BBX 3 8 0 0
BITMAP
A0
A0
E0
40
E0
40
40
40
ENDCHAR
STARTCHAR uniFFFD
ENCODING 65533
SWIDTH 1000 0
DWIDTH 4 0
BBX 3 6 0 1
BITMAP
A0
A0
40
A0
A0
A0
ENDCHAR
ENDFONT
